<?xml version="1.0" encoding="iso-8859-1"?>
<!-- Generator: Adobe Illustrator 19.0.0, SVG Export Plug-In . SVG Version: 6.00 Build 0)  -->
<svg version="1.1" id="Capa_1" xmlns="http://www.w3.org/2000/svg" xmlns:xlink="http://www.w3.org/1999/xlink" x="0px" y="0px"
	 viewBox="0 0 512 512" style="enable-background:new 0 0 512 512;" xml:space="preserve">
<g>
	<g>
		<path d="M216,106.001c-5.52,0-10,4.48-10,10s4.48,10,10,10s10-4.48,10-10S221.52,106.001,216,106.001z"/>
	</g>
</g>
<g>
	<g>
		<path d="M482,0.001H30c-16.542,0-30,13.458-30,30v349c0,16.542,13.458,30,30,30h155.15c-3.626,21.342-18.683,39.303-39.742,46.323
			l-12.57,4.19c-4.084,1.36-6.838,5.182-6.838,9.486v33c0,5.522,4.478,10,10,10h240c5.522,0,10-4.478,10-10v-33
			c0-4.305-2.754-8.126-6.838-9.486l-12.57-4.191c-21.059-7.019-36.116-24.98-39.742-46.322H482c16.542,0,30-13.458,30-30v-349
			C512,13.459,498.542,0.001,482,0.001z M360.268,474.296l5.732,1.911v15.793H146v-15.793l5.732-1.91
			c29.256-9.752,49.859-35.296,53.642-65.297h101.252C310.408,439.001,331.012,464.546,360.268,474.296z M492,379.001
			c0,5.514-4.486,10-10,10H316H196H30c-5.514,0-10-4.486-10-10v-53h472V379.001z M185.92,180.061l63.009,63.01l51.73,51.73
			c1.953,1.952,4.512,2.929,7.071,2.929s5.118-0.977,7.071-2.929c3.905-3.905,3.905-10.237,0-14.143l-34.658-34.658l45.938-45.938
			l108.382,105.938H63v-5.791L185.92,180.061z M63,272.243V63.001h386v229.242L332.99,178.85c-3.916-3.828-10.187-3.794-14.062,0.08
			L266,231.858l-2.929-2.929l-70-70c-3.875-3.873-10.144-3.909-14.062-0.08L63,272.243z M492,306.001h-23v-253
			c0-5.522-4.478-10-10-10H53c-5.522,0-10,4.478-10,10v253H20v-276c0-5.514,4.486-10,10-10h452c5.514,0,10,4.486,10,10V306.001z"/>
	</g>
</g>
<g>
	<g>
		<path d="M276,106.001c-16.542,0-30,13.458-30,30s13.458,30,30,30s30-13.458,30-30S292.542,106.001,276,106.001z M276,146.001
			c-5.514,0-10-4.486-10-10c0-5.514,4.486-10,10-10c5.514,0,10,4.486,10,10C286,141.514,281.514,146.001,276,146.001z"/>
	</g>
</g>
<g>
	<g>
		<path d="M176,106.001h-40c-5.522,0-10,4.478-10,10c0,5.522,4.478,10,10,10h40c5.522,0,10-4.478,10-10
			C186,110.478,181.522,106.001,176,106.001z"/>
	</g>
</g>
<g>
	<g>
		<path d="M376,126.001h-40c-5.522,0-10,4.478-10,10c0,5.522,4.478,10,10,10h40c5.522,0,10-4.478,10-10
			C386,130.478,381.522,126.001,376,126.001z"/>
	</g>
</g>
<g>
	<g>
		<path d="M276,349.001h-40c-5.522,0-10,4.478-10,10c0,5.522,4.478,10,10,10h40c5.522,0,10-4.478,10-10
			C286,353.478,281.522,349.001,276,349.001z"/>
	</g>
</g>
<g>
</g>
<g>
</g>
<g>
</g>
<g>
</g>
<g>
</g>
<g>
</g>
<g>
</g>
<g>
</g>
<g>
</g>
<g>
</g>
<g>
</g>
<g>
</g>
<g>
</g>
<g>
</g>
<g>
</g>
</svg>
