<?xml version="1.0" encoding="iso-8859-1"?>
<!-- Generator: Adobe Illustrator 19.0.0, SVG Export Plug-In . SVG Version: 6.00 Build 0)  -->
<svg version="1.1" id="Capa_1" xmlns="http://www.w3.org/2000/svg" xmlns:xlink="http://www.w3.org/1999/xlink" x="0px" y="0px"
	 viewBox="0 0 512 512" style="enable-background:new 0 0 512 512;" xml:space="preserve">
<g>
	<g>
		<path d="M216,63c-5.52,0-10,4.48-10,10s4.48,10,10,10s10-4.48,10-10S221.52,63,216,63z"/>
	</g>
</g>
<g>
	<g>
		<path d="M276,63c-16.542,0-30,13.458-30,30s13.458,30,30,30s30-13.458,30-30S292.542,63,276,63z M276,103c-5.514,0-10-4.486-10-10
			s4.486-10,10-10c5.514,0,10,4.486,10,10S281.514,103,276,103z"/>
	</g>
</g>
<g>
	<g>
		<path d="M176,63h-40c-5.522,0-10,4.478-10,10c0,5.522,4.478,10,10,10h40c5.522,0,10-4.478,10-10C186,67.478,181.522,63,176,63z"/>
	</g>
</g>
<g>
	<g>
		<path d="M376,83h-40c-5.522,0-10,4.478-10,10c0,5.522,4.478,10,10,10h40c5.522,0,10-4.478,10-10C386,87.478,381.522,83,376,83z"/>
	</g>
</g>
<g>
	<g>
		<path d="M512,30c0-5.522-4.478-10-10-10h-76V10c0-5.522-4.478-10-10-10H96c-5.522,0-10,4.478-10,10v10H10C4.478,20,0,24.478,0,30
			v143.43c0,0.208,0.019,0.411,0.031,0.615C0.019,174.25,0,174.452,0,174.66V256c0,5.522,4.478,10,10,10h76v10
			c0,5.522,4.478,10,10,10h152.872l16.994,177.672c0.379,3.962,3.071,7.322,6.855,8.556c3.783,1.234,7.939,0.105,10.581-2.873
			l32.755-36.938L359.12,507c1.326,2.297,3.511,3.973,6.072,4.659c0.852,0.229,1.721,0.341,2.588,0.341c1.74,0,3.467-0.454,5-1.34
			l34.64-20c4.783-2.762,6.422-8.877,3.66-13.66l-43.063-74.584l48.367-9.899c3.946-0.808,7.022-3.903,7.805-7.854
			c0.783-3.951-0.882-7.986-4.223-10.236L288.692,286H416c5.522,0,10-4.478,10-10v-10h76c5.522,0,10-4.478,10-10v-81.34
			c0-0.208-0.019-0.411-0.031-0.615c0.012-0.205,0.031-0.407,0.031-0.615V30z M86,246H20v-71.34c0-0.208-0.019-0.411-0.031-0.615
			C19.981,173.84,20,173.637,20,173.43V40h66V246z M389.029,377.701l-38.614,7.903c-3.149,0.645-5.797,2.764-7.115,5.695
			c-1.318,2.931-1.147,6.318,0.46,9.102l45,77.939l-17.319,10l-45-77.939c-1.607-2.784-4.455-4.625-7.652-4.949
			c-0.338-0.034-0.674-0.051-1.009-0.051c-2.844,0-5.573,1.214-7.481,3.365l-26.711,30.123L270.069,297.57L389.029,377.701z
			 M406,266H106v-45.954l79.985-82.651l59.634,61.87c0.149,0.184,0.295,0.37,0.459,0.546l2.495,2.519l10.227,10.61
			c0.498,0.516,1.048,0.969,1.634,1.362l28.244,28.51c1.971,2.117,4.644,3.188,7.324,3.188c2.438,0,4.883-0.887,6.81-2.678
			c4.043-3.762,4.271-10.09,0.511-14.134l-23.249-23.466l45.984-48.283L406,240.046V266z M406,211.287l-72.814-75.242
			C331.302,134.099,328.708,133,326,133c-0.014,0-0.026,0-0.04,0c-2.723,0.011-5.323,1.132-7.201,3.104l-52.766,55.406l-2.588-2.612
			L193.2,116.061c-1.883-1.953-4.478-3.058-7.19-3.061c-0.003,0-0.006,0-0.01,0c-2.709,0-5.302,1.099-7.186,3.046L106,191.287V20
			h300V211.287z M492,174.66V246h-66V40h66v133.43c0,0.208,0.019,0.411,0.031,0.615C492.019,174.25,492,174.452,492,174.66z"/>
	</g>
</g>
<g>
</g>
<g>
</g>
<g>
</g>
<g>
</g>
<g>
</g>
<g>
</g>
<g>
</g>
<g>
</g>
<g>
</g>
<g>
</g>
<g>
</g>
<g>
</g>
<g>
</g>
<g>
</g>
<g>
</g>
</svg>
