<?xml version="1.0" encoding="iso-8859-1"?>
<!-- Generator: Adobe Illustrator 19.0.0, SVG Export Plug-In . SVG Version: 6.00 Build 0)  -->
<svg version="1.1" id="Capa_1" xmlns="http://www.w3.org/2000/svg" xmlns:xlink="http://www.w3.org/1999/xlink" x="0px" y="0px"
	 viewBox="0 0 512 512" style="enable-background:new 0 0 512 512;" xml:space="preserve">
<g>
	<g>
		<path d="M322.316,225.673c-5.52,0-10.001,4.48-10.001,10.001c0,5.52,4.48,10.001,10.001,10.001c5.52,0,10.001-4.48,10.001-10.001
			C332.317,230.153,327.837,225.673,322.316,225.673z"/>
	</g>
</g>
<g>
	<g>
		<path d="M190.306,387.845c-5.52,0-10.001,4.47-10.001,10.001c0,5.52,4.48,10.001,10.001,10.001c5.52,0,10.001-4.48,10.001-10.001
			C200.307,392.316,195.826,387.845,190.306,387.845z"/>
	</g>
</g>
<g>
	<g>
		<path d="M90.298,225.673c-5.52,0-10.001,4.48-10.001,10.001c0,5.52,4.48,10.001,10.001,10.001c5.52,0,10.001-4.48,10.001-10.001
			C100.299,230.153,95.818,225.673,90.298,225.673z"/>
	</g>
</g>
<g>
	<g>
		<path d="M442.015,225.963h-79.696c-5.522,0-10.001,4.477-10.001,10.001s4.478,10.001,10.001,10.001h79.696
			c5.522,0,10.001-4.477,10.001-10.001S447.537,225.963,442.015,225.963z"/>
	</g>
</g>
<g>
	<g>
		<path d="M511.98,275.471v-49.599c0-22.047-17.936-39.983-39.982-39.983h-39.983v-75.956c0-16.543-13.459-30.002-30.002-30.002
			h-9.961V10.016c0-5.523-4.478-10.001-10.001-10.001H199.996c-0.115,0-0.225,0.013-0.339,0.017
			c-0.116,0.004-0.231,0.01-0.347,0.018c-0.425,0.029-0.844,0.077-1.253,0.157c-0.008,0.002-0.016,0.002-0.024,0.004
			c-0.443,0.088-0.871,0.212-1.291,0.357c-0.078,0.027-0.154,0.056-0.231,0.085c-0.399,0.148-0.787,0.316-1.16,0.512
			c-0.021,0.011-0.043,0.02-0.064,0.031c-0.39,0.208-0.759,0.447-1.116,0.703c-0.081,0.058-0.161,0.119-0.24,0.18
			c-0.353,0.27-0.695,0.555-1.008,0.869c-0.002,0.002-0.004,0.003-0.006,0.005l-68.684,68.831c-2.558,1.807-4.234,4.779-4.241,8.148
			h-9.732c-16.67,0-30.231,13.459-30.231,30.002v75.956H39.983C17.937,185.89,0,203.826,0,225.873v142.081
			C0,390,17.937,407.937,39.983,407.937h79.986v94.047c0,5.522,4.478,10.001,10.001,10.001h252.08
			c5.522,0,10.001-4.478,10.001-10.001v-94.047h79.946c22.047,0,39.982-17.936,39.982-39.983v-91.708
			c0.006-0.13,0.021-0.258,0.021-0.389C512,275.727,511.985,275.601,511.98,275.471z M392.051,99.933h9.961
			c5.514,0,10.001,4.486,10.001,10.001v75.956h-19.962V99.933z M189.995,34.197V69.95h-35.678L189.995,34.197z M139.991,92.012
			c0.141-0.665,0.217-1.353,0.219-2.06h59.786c5.522,0,10.001-4.477,10.001-10.001V20.017h162.053V185.89H139.991V92.012z
			 M100.028,109.934L100.028,109.934c0.001-5.42,4.686-10.001,10.231-10.001h9.731v85.957h-19.962V109.934z M20.002,225.873
			c0-11.018,8.964-19.982,19.982-19.982h432.014c11.018,0,19.981,8.964,19.981,19.982v39.983H20.002V225.873z M372.05,491.983
			H139.972V347.972H372.05V491.983z M491.978,367.954c0,11.018-8.963,19.982-19.981,19.982h-79.946v-39.963h19.742
			c5.522,0,10.001-4.477,10.001-10.001s-4.478-10.001-10.001-10.001H99.988c-5.522,0-10.001,4.477-10.001,10.001
			s4.478,10.001,10.001,10.001h19.982v39.963H39.983c-11.019,0-19.982-8.964-19.982-19.982v-82.096h471.977V367.954z"/>
	</g>
</g>
<g>
	<g>
		<path d="M322.095,427.888h-131.92c-5.522,0-10.001,4.477-10.001,10.001c0,5.523,4.478,10.001,10.001,10.001h131.92
			c5.522,0,10.001-4.477,10.001-10.001C332.096,432.366,327.619,427.888,322.095,427.888z"/>
	</g>
</g>
<g>
	<g>
		<path d="M322.095,387.885h-91.917c-5.522,0-10.001,4.477-10.001,10.001s4.478,10.001,10.001,10.001h91.917
			c5.522,0,10.001-4.477,10.001-10.001S327.619,387.885,322.095,387.885z"/>
	</g>
</g>
<g>
</g>
<g>
</g>
<g>
</g>
<g>
</g>
<g>
</g>
<g>
</g>
<g>
</g>
<g>
</g>
<g>
</g>
<g>
</g>
<g>
</g>
<g>
</g>
<g>
</g>
<g>
</g>
<g>
</g>
</svg>
