<?xml version="1.0" encoding="iso-8859-1"?>
<!-- Generator: Adobe Illustrator 19.0.0, SVG Export Plug-In . SVG Version: 6.00 Build 0)  -->
<svg version="1.1" id="Capa_1" xmlns="http://www.w3.org/2000/svg" xmlns:xlink="http://www.w3.org/1999/xlink" x="0px" y="0px"
	 viewBox="0 0 512 512" style="enable-background:new 0 0 512 512;" xml:space="preserve">
<g>
	<g>
		<path d="M336,263c-5.52,0-10,4.48-10,10c0,5.52,4.48,10,10,10c5.52,0,10-4.48,10-10C346,267.48,341.52,263,336,263z"/>
	</g>
</g>
<g>
	<g>
		<path d="M50,332c-5.52,0-10,4.48-10,10c0,5.52,4.48,10,10,10s10-4.48,10-10C60,336.48,55.52,332,50,332z"/>
	</g>
</g>
<g>
	<g>
		<path d="M133,452c-39.57,0-73-32.056-73-70c0-5.523-4.478-10-10-10s-10,4.477-10,10c0,48.785,42.589,90,93,90
			c5.522,0,10-4.477,10-10S138.522,452,133,452z"/>
	</g>
</g>
<g>
	<g>
		<path d="M502,40h-10V10c0-5.523-4.478-10-10-10h-40c-5.522,0-10,4.477-10,10v30h-10c-5.522,0-10,4.477-10,10v63
			c0,24.146,17.205,44.348,40,48.994V442c0,13.06-5.647,25.535-15.898,35.124C425.986,486.578,412.463,492,399,492
			c-28.233,0-53-23.364-53-50V316.01c0-5.523-4.478-10-10-10c-5.522,0-10,4.477-10,10V442c0,37.944,33.43,70,73,70
			c18.478,0,36.978-7.386,50.761-20.267C464.102,478.318,472,460.656,472,442V161.994c22.795-4.646,40-24.847,40-48.994V50
			C512,44.477,507.522,40,502,40z M452,20h20v20h-20V20z M492,113c0,16.542-13.458,30-30,30s-30-13.458-30-30V60h10h40h10V113z"/>
	</g>
</g>
<g>
	<g>
		<path d="M236,0c-50.33,0-95.814,34.161-108.972,80.599C113.338,83.375,103,95.502,103,110v16.448
			c-27.085,6.294-51.859,21.001-70.467,41.989C11.554,192.1,0,222.132,0,253v129c0,34.608,14.099,67.296,39.699,92.042
			C65.022,498.52,98.157,512,133,512s67.978-13.48,93.301-37.958C251.901,449.296,266,416.608,266,382V253
			c0-34.619-14.1-67.306-39.701-92.041c-17.792-17.196-39.541-29.006-63.299-34.497V110c0-11.478-6.482-21.466-15.975-26.509
			C158.691,46.754,195.414,20,236,20c49.626,0,90,40.374,90,90v123.01c0,5.523,4.478,10,10,10c5.522,0,10-4.477,10-10V110
			C346,49.346,296.654,0,236,0z M123,110c0-5.514,4.486-10,10-10c5.514,0,10,4.486,10,10v13.399c-6.648-0.5-13.358-0.5-20,0V110z
			 M246,382c0,59.626-51.748,110-113,110S20,441.626,20,382V263h84.72c4.128,11.639,15.243,20,28.28,20s24.152-8.361,28.28-20H246
			V382z M123,253v-40c0-5.514,4.486-10,10-10c2.668,0,5.179,1.041,7.068,2.931c1.891,1.89,2.932,4.4,2.932,7.069v40
			c0,5.514-4.486,10-10,10C127.486,263,123,258.514,123,253z M151.367,144.516c23.001,3.807,44.106,14.466,61.034,30.826
			c19.171,18.521,30.714,42.248,33.12,67.658H163v-30c0-8.01-3.121-15.543-8.79-21.212C148.542,186.121,141.01,183,133,183
			c-16.542,0-30,13.458-30,30v30H20.487c4.737-48.691,43.624-90.124,94.159-98.486C120.664,143.509,126.839,143,133,143
			S145.336,143.509,151.367,144.516z"/>
	</g>
</g>
<g>
</g>
<g>
</g>
<g>
</g>
<g>
</g>
<g>
</g>
<g>
</g>
<g>
</g>
<g>
</g>
<g>
</g>
<g>
</g>
<g>
</g>
<g>
</g>
<g>
</g>
<g>
</g>
<g>
</g>
</svg>
