<?xml version="1.0" encoding="iso-8859-1"?>
<!-- Generator: Adobe Illustrator 19.0.0, SVG Export Plug-In . SVG Version: 6.00 Build 0)  -->
<svg version="1.1" id="Capa_1" xmlns="http://www.w3.org/2000/svg" xmlns:xlink="http://www.w3.org/1999/xlink" x="0px" y="0px"
	 viewBox="0 0 512 512" style="enable-background:new 0 0 512 512;" xml:space="preserve">
<g>
	<g>
		<path d="M336,349c-5.52,0-10,4.48-10,10c0,5.52,4.48,10,10,10c5.52,0,10-4.48,10-10C346,353.48,341.52,349,336,349z"/>
	</g>
</g>
<g>
	<g>
		<path d="M50,0H10C4.478,0,0,4.477,0,10v40c0,5.523,4.478,10,10,10h40c5.522,0,10-4.477,10-10V10C60,4.477,55.522,0,50,0z M40,40
			H20V20h20V40z"/>
	</g>
</g>
<g>
	<g>
		<path d="M50,452H10c-5.522,0-10,4.477-10,10v40c0,5.523,4.478,10,10,10h40c5.522,0,10-4.477,10-10v-40
			C60,456.477,55.522,452,50,452z M40,492H20v-20h20V492z"/>
	</g>
</g>
<g>
	<g>
		<path d="M502,0h-40c-5.522,0-10,4.477-10,10v40c0,5.523,4.478,10,10,10h40c5.522,0,10-4.477,10-10V10C512,4.477,507.522,0,502,0z
			 M492,40h-20V20h20V40z"/>
	</g>
</g>
<g>
	<g>
		<path d="M502,452h-40c-5.522,0-10,4.477-10,10v40c0,5.523,4.478,10,10,10h40c5.522,0,10-4.477,10-10v-40
			C512,456.477,507.522,452,502,452z M492,492h-20v-20h20V492z"/>
	</g>
</g>
<g>
	<g>
		<path d="M30,83c-5.522,0-10,4.477-10,10v20c0,5.523,4.478,10,10,10s10-4.477,10-10V93C40,87.477,35.522,83,30,83z"/>
	</g>
</g>
<g>
	<g>
		<path d="M30,146c-5.522,0-10,4.477-10,10v20c0,5.523,4.478,10,10,10s10-4.477,10-10v-20C40,150.477,35.522,146,30,146z"/>
	</g>
</g>
<g>
	<g>
		<path d="M30,206c-5.522,0-10,4.477-10,10v20c0,5.523,4.478,10,10,10s10-4.477,10-10v-20C40,210.477,35.522,206,30,206z"/>
	</g>
</g>
<g>
	<g>
		<path d="M30,266c-5.522,0-10,4.477-10,10v20c0,5.523,4.478,10,10,10s10-4.477,10-10v-20C40,270.477,35.522,266,30,266z"/>
	</g>
</g>
<g>
	<g>
		<path d="M30,329c-5.522,0-10,4.477-10,10v20c0,5.523,4.478,10,10,10s10-4.477,10-10v-20C40,333.477,35.522,329,30,329z"/>
	</g>
</g>
<g>
	<g>
		<path d="M30,392c-5.522,0-10,4.477-10,10v20c0,5.523,4.478,10,10,10s10-4.477,10-10v-20C40,396.477,35.522,392,30,392z"/>
	</g>
</g>
<g>
	<g>
		<path d="M482,83c-5.522,0-10,4.477-10,10v20c0,5.523,4.478,10,10,10c5.522,0,10-4.477,10-10V93C492,87.477,487.522,83,482,83z"/>
	</g>
</g>
<g>
	<g>
		<path d="M482,146c-5.522,0-10,4.477-10,10v20c0,5.523,4.478,10,10,10c5.522,0,10-4.477,10-10v-20C492,150.477,487.522,146,482,146
			z"/>
	</g>
</g>
<g>
	<g>
		<path d="M482,206c-5.522,0-10,4.477-10,10v20c0,5.523,4.478,10,10,10c5.522,0,10-4.477,10-10v-20C492,210.477,487.522,206,482,206
			z"/>
	</g>
</g>
<g>
	<g>
		<path d="M482,266c-5.522,0-10,4.477-10,10v20c0,5.523,4.478,10,10,10c5.522,0,10-4.477,10-10v-20C492,270.477,487.522,266,482,266
			z"/>
	</g>
</g>
<g>
	<g>
		<path d="M482,329c-5.522,0-10,4.477-10,10v20c0,5.523,4.478,10,10,10c5.522,0,10-4.477,10-10v-20C492,333.477,487.522,329,482,329
			z"/>
	</g>
</g>
<g>
	<g>
		<path d="M482,392c-5.522,0-10,4.477-10,10v20c0,5.523,4.478,10,10,10c5.522,0,10-4.477,10-10v-20C492,396.477,487.522,392,482,392
			z"/>
	</g>
</g>
<g>
	<g>
		<path d="M113,472H93c-5.522,0-10,4.477-10,10s4.478,10,10,10h20c5.522,0,10-4.477,10-10S118.522,472,113,472z"/>
	</g>
</g>
<g>
	<g>
		<path d="M176,472h-20c-5.522,0-10,4.477-10,10s4.478,10,10,10h20c5.522,0,10-4.477,10-10S181.522,472,176,472z"/>
	</g>
</g>
<g>
	<g>
		<path d="M236,472h-20c-5.522,0-10,4.477-10,10s4.478,10,10,10h20c5.522,0,10-4.477,10-10S241.522,472,236,472z"/>
	</g>
</g>
<g>
	<g>
		<path d="M296,472h-20c-5.522,0-10,4.477-10,10s4.478,10,10,10h20c5.522,0,10-4.477,10-10S301.522,472,296,472z"/>
	</g>
</g>
<g>
	<g>
		<path d="M356,472h-20c-5.522,0-10,4.477-10,10s4.478,10,10,10h20c5.522,0,10-4.477,10-10S361.522,472,356,472z"/>
	</g>
</g>
<g>
	<g>
		<path d="M419,472h-20c-5.522,0-10,4.477-10,10s4.478,10,10,10h20c5.522,0,10-4.477,10-10S424.522,472,419,472z"/>
	</g>
</g>
<g>
	<g>
		<path d="M113,20H93c-5.522,0-10,4.477-10,10s4.478,10,10,10h20c5.522,0,10-4.477,10-10S118.522,20,113,20z"/>
	</g>
</g>
<g>
	<g>
		<path d="M176,20h-20c-5.522,0-10,4.477-10,10s4.478,10,10,10h20c5.522,0,10-4.477,10-10S181.522,20,176,20z"/>
	</g>
</g>
<g>
	<g>
		<path d="M236,20h-20c-5.522,0-10,4.477-10,10s4.478,10,10,10h20c5.522,0,10-4.477,10-10S241.522,20,236,20z"/>
	</g>
</g>
<g>
	<g>
		<path d="M296,20h-20c-5.522,0-10,4.477-10,10s4.478,10,10,10h20c5.522,0,10-4.477,10-10S301.522,20,296,20z"/>
	</g>
</g>
<g>
	<g>
		<path d="M356,20h-20c-5.522,0-10,4.477-10,10s4.478,10,10,10h20c5.522,0,10-4.477,10-10S361.522,20,356,20z"/>
	</g>
</g>
<g>
	<g>
		<path d="M419,20h-20c-5.522,0-10,4.477-10,10s4.478,10,10,10h20c5.522,0,10-4.477,10-10S424.522,20,419,20z"/>
	</g>
</g>
<g>
	<g>
		<path d="M419,83H93c-5.522,0-10,4.477-10,10v329c0,5.523,4.478,10,10,10h326c5.522,0,10-4.477,10-10V319.005
			c0-0.003,0-0.007,0-0.01V93C429,87.477,424.522,83,419,83z M409,349h-33c-5.522,0-10,4.477-10,10s4.478,10,10,10h33v43H103v-43
			h173c5.522,0,10-4.477,10-10s-4.478-10-10-10H103v-48.762l82.885-80.211l62.949,62.949l51.629,54.623
			c1.967,2.081,4.615,3.131,7.27,3.131c2.465,0,4.935-0.906,6.867-2.732c4.014-3.794,4.192-10.123,0.398-14.137l-35.334-37.383
			L326,240.142l83,83V349z M409,294.857l-75.929-75.929c-3.906-3.905-10.236-3.905-14.143,0L266,271.858l-72.929-72.929
			c-3.862-3.861-10.104-3.91-14.025-0.115L103,272.407V103h306V294.857z"/>
	</g>
</g>
<g>
	<g>
		<path d="M276,146c-16.542,0-30,13.458-30,30s13.458,30,30,30s30-13.458,30-30S292.542,146,276,146z M276,186
			c-5.514,0-10-4.486-10-10c0-5.514,4.486-10,10-10c5.514,0,10,4.486,10,10C286,181.514,281.514,186,276,186z"/>
	</g>
</g>
<g>
</g>
<g>
</g>
<g>
</g>
<g>
</g>
<g>
</g>
<g>
</g>
<g>
</g>
<g>
</g>
<g>
</g>
<g>
</g>
<g>
</g>
<g>
</g>
<g>
</g>
<g>
</g>
<g>
</g>
</svg>
