<?xml version="1.0" encoding="iso-8859-1"?>
<!-- Generator: Adobe Illustrator 19.0.0, SVG Export Plug-In . SVG Version: 6.00 Build 0)  -->
<svg version="1.1" id="Capa_1" xmlns="http://www.w3.org/2000/svg" xmlns:xlink="http://www.w3.org/1999/xlink" x="0px" y="0px"
	 viewBox="0 0 511.999 511.999" style="enable-background:new 0 0 511.999 511.999;" xml:space="preserve">
<g>
	<g>
		<path d="M402.975,271.956c-3.899-3.909-10.238-3.909-14.137,0c-3.909,3.899-3.909,10.238,0,14.137
			c3.899,3.909,10.238,3.909,14.137,0C406.884,282.194,406.884,275.855,402.975,271.956z"/>
	</g>
</g>
<g>
	<g>
		<path d="M195.954,149.055c-5.519,0-9.998,4.479-9.998,9.998c0,5.519,4.479,9.998,9.998,9.998c5.519,0,9.998-4.479,9.998-9.998
			C205.951,153.534,201.472,149.055,195.954,149.055z"/>
	</g>
</g>
<g>
	<g>
		<path d="M132.969,149.055c-5.519,0-9.998,4.479-9.998,9.998c0,5.519,4.479,9.998,9.998,9.998c5.519,0,9.998-4.479,9.998-9.998
			C142.966,153.534,138.487,149.055,132.969,149.055z"/>
	</g>
</g>
<g>
	<g>
		<path d="M72.983,149.055c-5.519,0-9.998,4.479-9.998,9.998c0,5.519,4.479,9.998,9.998,9.998c5.519,0,9.998-4.479,9.998-9.998
			C82.98,153.534,78.501,149.055,72.983,149.055z"/>
	</g>
</g>
<g>
	<g>
		<path d="M481.886,109.065H463.76c15.802-20.202,28.285-38.555,36.501-53.748c8.392-15.514,18.152-37.536,6.09-49.598
			c-11.564-11.564-34.426-5.593-71.945,18.787c-30.658,19.921-67.142,49.868-103.057,84.56H29.993
			C13.455,109.065,0,122.52,0,139.058v342.919c0,16.538,13.455,29.993,29.993,29.993h451.893c16.538,0,29.993-13.455,29.993-29.993
			V139.058C511.879,122.52,498.424,109.065,481.886,109.065z M333.333,135.15c2.982-2.982,6.025-5.986,9.045-8.926
			c33.896-33.016,68.785-62.086,98.237-81.856c32.212-21.621,47.283-24.893,51.39-24.325c0.83,6.104-7.399,32.765-55.615,91.159
			c-1.108,0.87-2.026,1.964-2.686,3.221c-17.363,20.797-36.839,42.029-57.953,63.143c-4.861,4.861-9.759,9.66-14.56,14.265
			c-8.255,7.924-16.552,15.607-24.767,22.943c-5.392-8.019-11.555-15.541-18.447-22.44c-6.685-6.685-13.973-12.69-21.738-17.973
			C307.883,161.317,320.315,148.166,333.333,135.15z M235.135,254.095c8.573-14.255,20.436-30.896,34.815-48.788
			c4.139-5.149,8.514-10.43,13.046-15.759c7.483,4.889,14.472,10.555,20.837,16.922c6.575,6.581,12.394,13.811,17.385,21.553
			c-23.831,20.25-46.211,36.807-64.634,47.862c-2.375-4.715-5.499-9.054-9.302-12.856
			C243.68,259.425,239.581,256.426,235.135,254.095z M233.144,319.583c-7.72,7.721-38.907,16.842-64.985,22.568
			c5.727-26.077,14.847-57.263,22.568-64.985c5.703-5.702,13.287-8.788,21.149-8.788c2.195,0,4.414,0.241,6.617,0.732
			c5.544,1.229,10.609,4.015,14.65,8.057c4.201,4.201,7.031,9.476,8.184,15.251c0.001,0.008,0.003,0.016,0.004,0.022
			C243.325,302.316,240.264,312.463,233.144,319.583z M19.995,139.058c0-5.513,4.485-9.998,9.998-9.998h281.25
			c-13.331,13.629-26.019,27.355-37.799,40.917c-0.019,0.021-0.038,0.043-0.057,0.065c-5.56,6.405-10.912,12.775-15.988,19.003
			H19.995V139.058z M491.884,481.977c0,5.513-4.485,9.998-9.998,9.998H29.993c-5.513,0-9.998-4.485-9.998-9.998V209.041h221.728
			c-10.775,14.35-19.75,27.714-26.495,39.473c-14.286-0.971-28.312,4.186-38.641,14.514c-16.961,16.962-28.839,78.039-31.049,90.11
			c-0.591,3.23,0.442,6.546,2.765,8.869c1.893,1.892,4.442,2.928,7.069,2.928c0.598,0,1.2-0.054,1.8-0.163
			c12.071-2.209,73.15-14.088,90.11-31.049c10.07-10.07,15.245-23.768,14.562-37.741c21.968-12.531,49.645-32.981,78.804-58.285
			c0.018-0.016,0.037-0.031,0.055-0.047c10.361-8.995,20.914-18.61,31.415-28.608h119.766V481.977z M491.884,189.046h-99.362
			c19.908-20.045,38.376-40.188,54.999-59.986h34.366c5.513,0,9.998,4.485,9.998,9.998V189.046z"/>
	</g>
</g>
<g>
	<g>
		<path d="M395.906,308.783c-5.651,0-10.233,4.582-10.233,10.233v99.976c0,5.383-4.38,9.763-9.763,9.763
			c-2.604,0-5.056-1.017-6.9-2.861c-1.845-1.845-2.861-4.296-2.861-6.9v-19.995c0-16.668-13.56-30.228-30.228-30.228
			c-8.071,0-15.661,3.145-21.372,8.856c-5.712,5.711-8.856,13.301-8.856,21.372c0,2.604-1.017,5.056-2.861,6.9
			c-1.845,1.845-4.296,2.861-6.9,2.861c-2.604,0-5.056-1.017-6.9-2.861c-1.845-1.845-2.861-4.296-2.861-6.9
			c0-8.071-3.145-15.661-8.856-21.372c-5.711-5.712-13.301-8.856-21.372-8.856s-15.661,3.145-21.372,8.856
			c-5.712,5.711-8.856,13.301-8.856,21.372c0,2.604-1.017,5.056-2.861,6.9c-1.822,1.822-4.233,2.835-6.8,2.86
			c-0.301-0.098-2.456-0.942-5.949-5.766c-2.909-4.019-4.799-8.159-4.809-8.18c-2.312-5.157-8.367-7.464-13.522-5.155
			c-5.158,2.311-7.466,8.365-5.155,13.522c0.273,0.61,2.79,6.127,6.909,11.815c6.835,9.441,14.381,14.229,22.425,14.229
			c8.071,0,15.661-3.145,21.372-8.856c5.712-5.711,8.856-13.301,8.856-21.372c0-2.604,1.017-5.056,2.861-6.9
			c1.845-1.845,4.296-2.861,6.9-2.861s5.056,1.017,6.9,2.861c1.845,1.845,2.861,4.296,2.861,6.9c0,8.071,3.145,15.661,8.856,21.372
			c5.711,5.712,13.301,8.856,21.372,8.856c8.071,0,15.661-3.145,21.372-8.856c5.712-5.711,8.856-13.301,8.856-21.372
			c0-2.604,1.017-5.056,2.861-6.9c1.845-1.845,4.296-2.861,6.9-2.861c5.383,0,9.763,4.38,9.763,9.763v19.995
			c0,8.071,3.145,15.661,8.856,21.372c5.711,5.712,13.301,8.856,21.372,8.856c16.668,0,30.228-13.56,30.228-30.228v-99.976
			C406.139,313.364,401.557,308.783,395.906,308.783z"/>
	</g>
</g>
<g>
</g>
<g>
</g>
<g>
</g>
<g>
</g>
<g>
</g>
<g>
</g>
<g>
</g>
<g>
</g>
<g>
</g>
<g>
</g>
<g>
</g>
<g>
</g>
<g>
</g>
<g>
</g>
<g>
</g>
</svg>
