<?xml version="1.0" encoding="iso-8859-1"?>
<!-- Generator: Adobe Illustrator 19.0.0, SVG Export Plug-In . SVG Version: 6.00 Build 0)  -->
<svg version="1.1" id="Capa_1" xmlns="http://www.w3.org/2000/svg" xmlns:xlink="http://www.w3.org/1999/xlink" x="0px" y="0px"
	 viewBox="0 0 512 512" style="enable-background:new 0 0 512 512;" xml:space="preserve">
<g>
	<g>
		<path d="M196,100c-5.52,0-10,4.48-10,10s4.48,10,10,10s10-4.48,10-10S201.52,100,196,100z"/>
	</g>
</g>
<g>
	<g>
		<path d="M502,326h-36V70c0-16.542-13.458-30-30-30H324.28c-4.128-11.639-15.243-20-28.28-20h-11.714
			C280.159,8.359,269.037,0,256,0c-8.01,0-15.543,3.121-21.211,8.789c-3.22,3.22-5.618,7.042-7.089,11.211H216
			c-13.036,0-24.152,8.361-28.28,20H76c-16.542,0-30,13.458-30,30v219.995c0,0.003,0,0.007,0,0.01V326H10c-5.522,0-10,4.478-10,10
			v20c0,16.542,13.458,30,30,30h62.547L46.741,498.221c-1.259,3.084-0.899,6.592,0.958,9.356C49.558,510.342,52.669,512,56,512h50
			c4.063,0,7.723-2.459,9.259-6.221L164.149,386H226v116c0,5.522,4.478,10,10,10h40c5.522,0,10-4.478,10-10V386h51.851
			l48.891,119.779c1.536,3.762,5.195,6.221,9.259,6.221h50c3.331,0,6.442-1.658,8.301-4.423c1.857-2.765,2.217-6.272,0.958-9.356
			L409.453,386H482c16.542,0,30-13.458,30-30v-20C512,330.478,507.522,326,502,326z M206,50c0-5.514,4.486-10,10-10h20
			c5.522,0,10-4.478,10-10c0-2.668,1.041-5.178,2.932-7.068S253.332,20,256,20c5.514,0,10,4.486,10,10c0,5.522,4.478,10,10,10h20
			c5.514,0,10,4.486,10,10v10H206V50z M66,70c0-5.514,4.486-10,10-10h110v10c0,5.522,4.478,10,10,10h120c5.522,0,10-4.478,10-10V60
			h110c5.514,0,10,4.486,10,10v221.066L333.229,173.09c-1.859-1.945-4.425-3.059-7.116-3.089C326.075,170,326.037,170,326,170
			c-2.65,0-5.194,1.053-7.071,2.929L266,225.857l-2.929-2.929l-70-70c-3.906-3.904-10.236-3.904-14.143,0L66,265.857V70z
			 M66,294.143l120-120l62.929,62.929l51.73,51.73c1.953,1.952,4.512,2.929,7.071,2.929s5.118-0.977,7.071-2.929
			c3.905-3.905,3.905-10.237,0-14.143L280.143,240l45.696-45.696L446,320.011V326H66V294.143z M99.281,492H70.883l43.267-106h28.397
			L99.281,492z M266,492h-20V386h20V492z M431.117,492h-28.398l-43.265-106h28.397L431.117,492z M492,356c0,5.514-4.486,10-10,10
			h-87.262c-0.041-0.001-0.081,0-0.122,0h-49.878c-0.041-0.001-0.081,0-0.122,0h-187.24c-0.036,0-0.073-0.001-0.109,0h-49.891
			c-0.036,0-0.073-0.001-0.109,0H30c-5.514,0-10-4.486-10-10v-10h472V356z"/>
	</g>
</g>
<g>
	<g>
		<path d="M276,100c-16.542,0-30,13.458-30,30s13.458,30,30,30s30-13.458,30-30S292.542,100,276,100z M276,140
			c-5.514,0-10-4.486-10-10c0-5.514,4.486-10,10-10c5.514,0,10,4.486,10,10S281.514,140,276,140z"/>
	</g>
</g>
<g>
	<g>
		<path d="M156,100h-40c-5.522,0-10,4.478-10,10c0,5.522,4.478,10,10,10h40c5.522,0,10-4.478,10-10C166,104.478,161.522,100,156,100
			z"/>
	</g>
</g>
<g>
	<g>
		<path d="M396,120h-40c-5.522,0-10,4.478-10,10c0,5.522,4.478,10,10,10h40c5.522,0,10-4.478,10-10C406,124.478,401.522,120,396,120
			z"/>
	</g>
</g>
<g>
</g>
<g>
</g>
<g>
</g>
<g>
</g>
<g>
</g>
<g>
</g>
<g>
</g>
<g>
</g>
<g>
</g>
<g>
</g>
<g>
</g>
<g>
</g>
<g>
</g>
<g>
</g>
<g>
</g>
</svg>
