<?xml version="1.0" encoding="iso-8859-1"?>
<!-- Generator: Adobe Illustrator 19.0.0, SVG Export Plug-In . SVG Version: 6.00 Build 0)  -->
<svg version="1.1" id="Capa_1" xmlns="http://www.w3.org/2000/svg" xmlns:xlink="http://www.w3.org/1999/xlink" x="0px" y="0px"
	 viewBox="0 0 512 512" style="enable-background:new 0 0 512 512;" xml:space="preserve">
<g>
	<g>
		<path d="M282,119.999c-5.52,0-10,4.48-10,10c0,5.52,4.48,10,10,10c5.52,0,10-4.48,10-10C292,124.479,287.52,119.999,282,119.999z"
			/>
	</g>
</g>
<g>
	<g>
		<path d="M282,0C155.179,0,52.001,103.177,52.001,229.999c0,43.98,12.408,86.442,35.953,123.343L28.798,412.49
			c-0.003,0.003-0.007,0.006-0.01,0.01l-14.135,14.144c-9.447,9.437-14.652,21.993-14.652,35.354s5.204,25.917,14.646,35.35
			C24.09,506.796,36.646,512,50.001,512s25.91-5.204,35.35-14.649L99.5,483.21l0.001-0.001l0.001-0.001l59.16-59.16
			c36.9,23.543,79.361,35.949,123.338,35.949c126.821,0,229.999-103.177,229.999-229.999S408.822,0,282,0z M71.208,483.208
			C65.542,488.878,58.011,492,50.001,492c-8.01,0-15.541-3.122-21.213-8.798c-5.667-5.66-8.787-13.19-8.787-21.205
			s3.12-15.545,8.793-21.211l7.069-7.074l42.423,42.423L71.208,483.208z M150.359,404.067c-0.042,0.042-0.084,0.083-0.126,0.126
			l-57.802,57.802l-42.427-42.427l57.867-57.859c0.03-0.03,0.054-0.062,0.083-0.092l77.994-77.994
			c9.937,17.759,24.67,32.492,42.427,42.428L150.359,404.067z M284.071,227.928c-2.679-2.679-6.643-3.611-10.232-2.416l-21.71,7.236
			c-0.082-0.91-0.129-1.826-0.129-2.749c0-16.542,13.458-30,30-30c16.542,0,30,13.458,30,30s-13.458,30-30,30
			c-0.923,0-1.839-0.047-2.749-0.129l7.236-21.71C287.684,234.567,286.749,230.606,284.071,227.928z M261.192,250.808
			l-19.831,59.496c-17.064-8.653-31.011-22.599-39.665-39.666L261.192,250.808z M248.059,334.651
			c10.922,3.546,22.308,5.347,33.941,5.347c60.654,0,109.999-49.346,109.999-109.999c0-44.17-26.251-83.899-66.879-101.218
			c-5.083-2.166-10.955,0.197-13.12,5.278c-2.166,5.08,0.197,10.954,5.278,13.12c33.241,14.17,54.721,46.679,54.721,82.819
			c0,49.626-40.374,90-89.999,90c-7.454,0-14.776-0.916-21.891-2.696l12.717-38.156c3.006,0.558,6.068,0.852,9.173,0.852
			c27.57,0,50-22.43,50-50s-22.43-50-50-50s-50,22.43-50,50c0,3.105,0.294,6.167,0.852,9.173l-38.156,12.717
			c-1.78-7.114-2.696-14.436-2.696-21.891c0-36.142,21.479-68.65,54.721-82.82c5.081-2.166,7.444-8.04,5.278-13.12
			c-2.164-5.08-8.041-7.442-13.12-5.278C198.251,146.099,172,185.829,172,229.999c0,11.634,1.801,23.021,5.347,33.941
			l-30.673,30.672c-9.618-20.087-14.674-42.175-14.674-64.613C132.001,147.289,199.29,80,282,80s149.999,67.29,149.999,149.999
			S364.709,379.998,282,379.998c-22.438,0-44.527-5.055-64.614-14.674L248.059,334.651z M282,439.997
			c-38.658,0-76.033-10.498-108.824-30.463l29.327-29.327c24.404,12.955,51.718,19.79,79.498,19.79
			c93.737,0,169.999-76.262,169.999-169.999S375.737,60,282,60s-169.999,76.262-169.999,169.999c0,27.78,6.835,55.094,19.79,79.497
			l-29.327,29.327c-19.965-32.792-30.463-70.166-30.463-108.823C72.001,114.205,166.207,20,282,20s209.999,94.205,209.999,209.999
			S397.793,439.997,282,439.997z"/>
	</g>
</g>
<g>
</g>
<g>
</g>
<g>
</g>
<g>
</g>
<g>
</g>
<g>
</g>
<g>
</g>
<g>
</g>
<g>
</g>
<g>
</g>
<g>
</g>
<g>
</g>
<g>
</g>
<g>
</g>
<g>
</g>
</svg>
