<?xml version="1.0" encoding="iso-8859-1"?>
<!-- Generator: Adobe Illustrator 19.0.0, SVG Export Plug-In . SVG Version: 6.00 Build 0)  -->
<svg version="1.1" id="Capa_1" xmlns="http://www.w3.org/2000/svg" xmlns:xlink="http://www.w3.org/1999/xlink" x="0px" y="0px"
	 viewBox="0 0 512 512" style="enable-background:new 0 0 512 512;" xml:space="preserve">
<g>
	<g>
		<path d="M384.142,127.868c-3.909-3.899-10.237-3.899-14.146,0c-3.899,3.909-3.899,10.237,0,14.146
			c3.909,3.899,10.237,3.899,14.146,0C388.041,138.105,388.041,131.777,384.142,127.868z"/>
	</g>
</g>
<g>
	<g>
		<path d="M87.226,424.782c-3.899-3.909-10.236-3.909-14.136,0c-3.909,3.899-3.909,10.237,0,14.136
			c3.899,3.909,10.237,3.909,14.136,0C91.135,435.02,91.135,428.681,87.226,424.782z"/>
	</g>
</g>
<g>
	<g>
		<path d="M503.222,8.785C497.555,3.12,490.024,0,482.016,0c-8.008,0-15.538,3.12-21.205,8.786l-48.397,48.389l-14.136-14.136
			c-3.905-3.903-10.233-3.903-14.139,0l-39.165,39.165L177.38,161.592l-33.655-33.655c-3.905-3.903-10.233-3.903-14.139,0
			c-3.904,3.904-3.904,10.234,0,14.139l28.607,28.607l-40.434,19.153c-12.069,5.718-21.19,15.791-25.681,28.365
			c-3.349,9.376-3.822,19.305-1.478,28.753l-28.427,13.464c-4.99,2.363-7.119,8.325-4.757,13.315
			c1.71,3.608,5.299,5.721,9.043,5.721c1.435,0,2.891-0.31,4.272-0.964l36.561-17.316l95.947-45.441l39.451,39.451l-14.138,14.138
			c-3.905,3.903-3.907,10.233-0.004,14.139c1.953,1.954,4.512,2.93,7.071,2.93c2.558,0,5.116-0.976,7.067-2.926l14.142-14.142
			l39.608,39.608l-45.424,95.894c-0.008,0.016-0.017,0.03-0.024,0.046s-0.012,0.032-0.02,0.048l-17.297,36.514
			c-2.363,4.99-0.234,10.951,4.756,13.314c1.382,0.655,2.838,0.965,4.272,0.965c3.743,0,7.333-2.111,9.042-5.721l13.477-28.448
			c3.93,0.967,7.906,1.454,11.853,1.454c18.73,0,36.726-10.568,45.263-28.591l19.149-40.428l28.45,28.45
			c1.953,1.951,4.511,2.928,7.069,2.928s5.117-0.977,7.069-2.928c3.904-3.904,3.904-10.234,0-14.139l-33.499-33.5l79.662-168.179
			l38.737-38.737c3.904-3.904,3.904-10.234,0-14.139l-14.136-14.136l48.388-48.396C514.915,39.506,514.915,20.48,503.222,8.785z
			 M109.305,238.093c-0.458-4.399,0.07-8.88,1.602-13.168c2.695-7.545,8.169-13.59,15.411-17.021l46.887-22.21l15.02,15.02
			L109.305,238.093z M192.394,176.605l127.69-60.487c-2.475,7.488-3.455,15.454-2.823,23.472l-109.845,52.036L192.394,176.605z
			 M270.968,255.18l14.142-14.142c3.903-3.905,3.901-10.235-0.004-14.139c-3.906-3.902-10.234-3.9-14.139,0.004l-14.138,14.138
			l-34.401-34.401l99.838-47.295c2.969,6.668,7.147,12.771,12.389,18.011c5.296,5.295,11.463,9.501,18.2,12.472l-47.327,99.91
			L270.968,255.18z M304.264,385.84c-3.431,7.242-9.477,12.716-17.026,15.411c-4.288,1.531-8.77,2.058-13.17,1.603l37.383-78.912
			l15.018,15.018L304.264,385.84z M335.56,319.772l-15.018-15.018l52.106-110.006c1.5,0.112,2.999,0.188,4.493,0.188
			c6.512,0,12.932-1.076,19.032-3.126L335.56,319.772z M405.345,163.218c-9.592,9.592-23.252,13.647-36.551,10.85
			c-7.572-1.586-14.489-5.338-20.003-10.849c-5.195-5.197-8.809-11.658-10.54-18.734c-0.074-0.783-0.235-1.566-0.503-2.335
			c-2.368-12.957,1.699-26.138,11.044-35.484l42.418-42.418l56.553,56.553L405.345,163.218z M489.083,37.06l-48.388,48.396
			l-14.142-14.143l48.396-48.387c1.891-1.891,4.4-2.931,7.067-2.931c2.668,0,5.179,1.041,7.067,2.929
			C492.98,26.821,492.98,33.163,489.083,37.06z"/>
	</g>
</g>
<g>
	<g>
		<path d="M87.227,85.456c-3.905-3.903-10.233-3.903-14.139,0C32.382,126.163,6.857,180.158,1.211,237.495
			c-5.566,56.541,8.311,113.714,39.075,160.988c1.917,2.944,5.12,4.546,8.39,4.546c1.869,0,3.76-0.523,5.443-1.619
			c4.628-3.012,5.938-9.205,2.927-13.833C-1.841,297.086,10.852,175.972,87.227,99.596C91.131,95.692,91.131,89.361,87.227,85.456z"
			/>
	</g>
</g>
<g>
	<g>
		<path d="M426.551,424.78c-3.905-3.903-10.233-3.903-14.138,0.001c-76.377,76.377-197.489,89.07-287.982,30.181
			c-4.629-3.013-10.82-1.701-13.833,2.927c-3.011,4.628-1.701,10.82,2.927,13.832C153.971,498.042,201.653,512,249.994,512
			c8.163,0,16.351-0.399,24.52-1.203c57.336-5.645,111.331-31.171,152.037-71.878C430.455,435.016,430.455,428.685,426.551,424.78z"
			/>
	</g>
</g>
<g>
</g>
<g>
</g>
<g>
</g>
<g>
</g>
<g>
</g>
<g>
</g>
<g>
</g>
<g>
</g>
<g>
</g>
<g>
</g>
<g>
</g>
<g>
</g>
<g>
</g>
<g>
</g>
<g>
</g>
</svg>
