<?xml version="1.0" encoding="iso-8859-1"?>
<!-- Generator: Adobe Illustrator 19.0.0, SVG Export Plug-In . SVG Version: 6.00 Build 0)  -->
<svg version="1.1" id="Capa_1" xmlns="http://www.w3.org/2000/svg" xmlns:xlink="http://www.w3.org/1999/xlink" x="0px" y="0px"
	 viewBox="0 0 511.998 511.998" style="enable-background:new 0 0 511.998 511.998;" xml:space="preserve">
<g>
	<g>
		<path d="M501.998,170c-5.52,0-10,4.48-10,10s4.48,10,10,10c5.52,0,10-4.48,10-10S507.518,170,501.998,170z"/>
	</g>
</g>
<g>
	<g>
		<path d="M459.278,52.72c-3.91-3.9-10.24-3.9-14.14,0c-3.91,3.91-3.91,10.24,0,14.14c3.9,3.91,10.23,3.91,14.14,0
			C463.178,62.96,463.178,56.63,459.278,52.72z"/>
	</g>
</g>
<g>
	<g>
		<path d="M459.278,293.14c-3.91-3.91-10.24-3.91-14.14,0c-3.91,3.9-3.91,10.23,0,14.14c3.9,3.9,10.23,3.9,14.14,0
			C463.178,303.37,463.178,297.04,459.278,293.14z"/>
	</g>
</g>
<g>
	<g>
		<path d="M331.998,0c-5.52,0-10,4.48-10,10s4.48,10,10,10c5.52,0,10-4.48,10-10S337.518,0,331.998,0z"/>
	</g>
</g>
<g>
	<g>
		<path d="M331.998,340c-5.52,0-10,4.48-10,10c0,5.52,4.48,10,10,10c5.52,0,10-4.48,10-10C341.998,344.48,337.518,340,331.998,340z"
			/>
	</g>
</g>
<g>
	<g>
		<path d="M218.858,52.72c-3.9-3.9-10.23-3.9-14.14,0c-3.9,3.91-3.9,10.24,0,14.14c3.91,3.91,10.24,3.91,14.14,0
			C222.768,62.96,222.768,56.63,218.858,52.72z"/>
	</g>
</g>
<g>
	<g>
		<path d="M161.998,170c-5.52,0-10,4.48-10,10s4.48,10,10,10c5.52,0,10-4.48,10-10S167.518,170,161.998,170z"/>
	</g>
</g>
<g>
	<g>
		<path d="M376.959,147.969l-14.14-14.14c-5.666-5.666-13.2-8.787-21.216-8.787c-8.017,0-15.551,3.121-21.23,8.8l-94.783,95.155
			c-0.632,0.396-1.233,0.86-1.782,1.411c-0.552,0.554-1.018,1.16-1.413,1.797L8.788,446.649C3.121,452.314,0,459.848,0,467.86
			c0,8.012,3.121,15.545,8.787,21.211l14.14,14.139c5.666,5.667,13.198,8.788,21.211,8.788s15.546-3.121,21.226-8.801
			l215.229-216.05l96.366-96.746c5.666-5.666,8.787-13.201,8.787-21.216C385.746,161.17,382.625,153.635,376.959,147.969z
			 M51.207,489.068c-1.889,1.889-4.399,2.93-7.069,2.93s-5.18-1.041-7.068-2.93l-14.14-14.14C21.041,473.04,20,470.53,20,467.86
			c0-2.67,1.041-5.18,2.943-7.083L231.09,251.814l28.288,28.288L51.207,489.068z M362.803,176.273l-89.308,89.661l-28.289-28.288
			l89.324-89.674c1.889-1.888,4.4-2.928,7.074-2.928c2.673,0,5.185,1.04,7.073,2.928l14.14,14.141
			c1.889,1.889,2.93,4.401,2.93,7.074C365.747,171.86,364.705,174.37,362.803,176.273z"/>
	</g>
</g>
<g>
	<g>
		<path d="M331.998,40c-5.522,0-10,4.477-10,10v40c0,5.523,4.478,10,10,10c5.522,0,10-4.477,10-10V50
			C341.998,44.477,337.52,40,331.998,40z"/>
	</g>
</g>
<g>
	<g>
		<path d="M331.998,260c-5.522,0-10,4.477-10,10v40c0,5.523,4.478,10,10,10c5.522,0,10-4.477,10-10v-40
			C341.998,264.477,337.521,260,331.998,260z"/>
	</g>
</g>
<g>
	<g>
		<path d="M275.429,109.289l-28.28-28.28c-3.906-3.905-10.236-3.905-14.143,0c-3.905,3.905-3.905,10.237,0,14.142l28.281,28.28
			c1.953,1.953,4.512,2.929,7.071,2.929s5.118-0.977,7.071-2.929C279.334,119.526,279.334,113.194,275.429,109.289z"/>
	</g>
</g>
<g>
	<g>
		<path d="M430.988,264.849l-28.279-28.28c-3.906-3.905-10.236-3.905-14.143,0c-3.905,3.905-3.905,10.237,0,14.142l28.28,28.28
			c1.953,1.953,4.512,2.929,7.071,2.929s5.118-0.977,7.071-2.929C434.893,275.086,434.893,268.754,430.988,264.849z"/>
	</g>
</g>
<g>
	<g>
		<path d="M430.989,81.009c-3.905-3.905-10.235-3.905-14.143,0l-28.28,28.28c-3.905,3.905-3.905,10.237,0,14.142
			c1.954,1.953,4.512,2.929,7.072,2.929c2.559,0,5.118-0.977,7.071-2.929l28.28-28.28C434.894,91.246,434.894,84.914,430.989,81.009
			z"/>
	</g>
</g>
<g>
	<g>
		<path d="M241.998,170h-40c-5.522,0-10,4.477-10,10s4.478,10,10,10h40c5.522,0,10-4.477,10-10S247.52,170,241.998,170z"/>
	</g>
</g>
<g>
	<g>
		<path d="M461.998,170h-40c-5.522,0-10,4.477-10,10s4.478,10,10,10h40c5.522,0,10-4.477,10-10S467.521,170,461.998,170z"/>
	</g>
</g>
<g>
</g>
<g>
</g>
<g>
</g>
<g>
</g>
<g>
</g>
<g>
</g>
<g>
</g>
<g>
</g>
<g>
</g>
<g>
</g>
<g>
</g>
<g>
</g>
<g>
</g>
<g>
</g>
<g>
</g>
</svg>
