<?xml version="1.0" encoding="iso-8859-1"?>
<!-- Generator: Adobe Illustrator 19.0.0, SVG Export Plug-In . SVG Version: 6.00 Build 0)  -->
<svg version="1.1" id="Capa_1" xmlns="http://www.w3.org/2000/svg" xmlns:xlink="http://www.w3.org/1999/xlink" x="0px" y="0px"
	 viewBox="0 0 512 512" style="enable-background:new 0 0 512 512;" xml:space="preserve">
<g>
	<g>
		<path d="M50,0H10C4.478,0,0,4.477,0,10v40c0,5.523,4.478,10,10,10h40c5.522,0,10-4.477,10-10V10C60,4.477,55.522,0,50,0z M40,40
			H20V20h20V40z"/>
	</g>
</g>
<g>
	<g>
		<path d="M50,452H10c-5.522,0-10,4.477-10,10v40c0,5.523,4.478,10,10,10h40c5.522,0,10-4.477,10-10v-40
			C60,456.477,55.522,452,50,452z M40,492H20v-20h20V492z"/>
	</g>
</g>
<g>
	<g>
		<path d="M502,0h-40c-5.522,0-10,4.477-10,10v40c0,5.523,4.478,10,10,10h40c5.522,0,10-4.477,10-10V10C512,4.477,507.522,0,502,0z
			 M492,40h-20V20h20V40z"/>
	</g>
</g>
<g>
	<g>
		<path d="M502,452h-40c-5.522,0-10,4.477-10,10v40c0,5.523,4.478,10,10,10h40c5.522,0,10-4.477,10-10v-40
			C512,456.477,507.522,452,502,452z M492,492h-20v-20h20V492z"/>
	</g>
</g>
<g>
	<g>
		<path d="M30,80c-5.522,0-10,4.477-10,10v20c0,5.523,4.478,10,10,10s10-4.477,10-10V90C40,84.477,35.522,80,30,80z"/>
	</g>
</g>
<g>
	<g>
		<path d="M30,140c-5.522,0-10,4.477-10,10v23c0,5.523,4.478,10,10,10s10-4.477,10-10v-23C40,144.477,35.522,140,30,140z"/>
	</g>
</g>
<g>
	<g>
		<path d="M30,203c-5.522,0-10,4.477-10,10v23c0,5.523,4.478,10,10,10s10-4.477,10-10v-23C40,207.477,35.522,203,30,203z"/>
	</g>
</g>
<g>
	<g>
		<path d="M30,269c-5.522,0-10,4.477-10,10v20c0,5.523,4.478,10,10,10s10-4.477,10-10v-20C40,273.477,35.522,269,30,269z"/>
	</g>
</g>
<g>
	<g>
		<path d="M30,332c-5.522,0-10,4.477-10,10v20c0,5.523,4.478,10,10,10s10-4.477,10-10v-20C40,336.477,35.522,332,30,332z"/>
	</g>
</g>
<g>
	<g>
		<path d="M30,392c-5.522,0-10,4.477-10,10v20c0,5.523,4.478,10,10,10s10-4.477,10-10v-20C40,396.477,35.522,392,30,392z"/>
	</g>
</g>
<g>
	<g>
		<path d="M482,80c-5.522,0-10,4.477-10,10v20c0,5.523,4.478,10,10,10c5.522,0,10-4.477,10-10V90C492,84.477,487.522,80,482,80z"/>
	</g>
</g>
<g>
	<g>
		<path d="M482,140c-5.522,0-10,4.477-10,10v23c0,5.523,4.478,10,10,10c5.522,0,10-4.477,10-10v-23C492,144.477,487.522,140,482,140
			z"/>
	</g>
</g>
<g>
	<g>
		<path d="M482,203c-5.522,0-10,4.477-10,10v23c0,5.523,4.478,10,10,10c5.522,0,10-4.477,10-10v-23C492,207.477,487.522,203,482,203
			z"/>
	</g>
</g>
<g>
	<g>
		<path d="M482,269c-5.522,0-10,4.477-10,10v20c0,5.523,4.478,10,10,10c5.522,0,10-4.477,10-10v-20C492,273.477,487.522,269,482,269
			z"/>
	</g>
</g>
<g>
	<g>
		<path d="M482,332c-5.522,0-10,4.477-10,10v20c0,5.523,4.478,10,10,10c5.522,0,10-4.477,10-10v-20C492,336.477,487.522,332,482,332
			z"/>
	</g>
</g>
<g>
	<g>
		<path d="M482,392c-5.522,0-10,4.477-10,10v20c0,5.523,4.478,10,10,10c5.522,0,10-4.477,10-10v-20C492,396.477,487.522,392,482,392
			z"/>
	</g>
</g>
<g>
	<g>
		<path d="M113,472H93c-5.522,0-10,4.477-10,10s4.478,10,10,10h20c5.522,0,10-4.477,10-10S118.522,472,113,472z"/>
	</g>
</g>
<g>
	<g>
		<path d="M173,472h-20c-5.522,0-10,4.477-10,10s4.478,10,10,10h20c5.522,0,10-4.477,10-10S178.522,472,173,472z"/>
	</g>
</g>
<g>
	<g>
		<path d="M236,472h-20c-5.522,0-10,4.477-10,10s4.478,10,10,10h20c5.522,0,10-4.477,10-10S241.522,472,236,472z"/>
	</g>
</g>
<g>
	<g>
		<path d="M296,472h-20c-5.522,0-10,4.477-10,10s4.478,10,10,10h20c5.522,0,10-4.477,10-10S301.522,472,296,472z"/>
	</g>
</g>
<g>
	<g>
		<path d="M359,472h-20c-5.522,0-10,4.477-10,10s4.478,10,10,10h20c5.522,0,10-4.477,10-10S364.522,472,359,472z"/>
	</g>
</g>
<g>
	<g>
		<path d="M419,472h-20c-5.522,0-10,4.477-10,10s4.478,10,10,10h20c5.522,0,10-4.477,10-10S424.522,472,419,472z"/>
	</g>
</g>
<g>
	<g>
		<path d="M113,20H93c-5.522,0-10,4.477-10,10s4.478,10,10,10h20c5.522,0,10-4.477,10-10S118.522,20,113,20z"/>
	</g>
</g>
<g>
	<g>
		<path d="M173,20h-20c-5.522,0-10,4.477-10,10s4.478,10,10,10h20c5.522,0,10-4.477,10-10S178.522,20,173,20z"/>
	</g>
</g>
<g>
	<g>
		<path d="M236,20h-20c-5.522,0-10,4.477-10,10s4.478,10,10,10h20c5.522,0,10-4.477,10-10S241.522,20,236,20z"/>
	</g>
</g>
<g>
	<g>
		<path d="M296,20h-20c-5.522,0-10,4.477-10,10s4.478,10,10,10h20c5.522,0,10-4.477,10-10S301.522,20,296,20z"/>
	</g>
</g>
<g>
	<g>
		<path d="M359,20h-20c-5.522,0-10,4.477-10,10s4.478,10,10,10h20c5.522,0,10-4.477,10-10S364.522,20,359,20z"/>
	</g>
</g>
<g>
	<g>
		<path d="M419,20h-20c-5.522,0-10,4.477-10,10s4.478,10,10,10h20c5.522,0,10-4.477,10-10S424.522,20,419,20z"/>
	</g>
</g>
<g>
	<g>
		<path d="M419,80H93c-5.522,0-10,4.477-10,10v332c0,5.523,4.478,10,10,10h326c5.522,0,10-4.477,10-10V90
			C429,84.477,424.522,80,419,80z M409,412H103V100h306V412z"/>
	</g>
</g>
<g>
	<g>
		<path d="M379,120H133c-5.522,0-10,4.477-10,10v83c0,5.523,4.478,10,10,10h40c5.522,0,10-4.477,10-10v-30h43v149h-30
			c-5.522,0-10,4.477-10,10v40c0,5.523,4.478,10,10,10h120c5.522,0,10-4.477,10-10v-40c0-5.523-4.478-10-10-10h-30V183h43v30
			c0,5.523,4.478,10,10,10h40c5.522,0,10-4.477,10-10v-83C389,124.477,384.522,120,379,120z M369,203h-20v-30
			c0-5.523-4.478-10-10-10h-63c-5.522,0-10,4.477-10,10v169c0,5.523,4.478,10,10,10h30v20H206v-20h30c5.522,0,10-4.477,10-10V173
			c0-5.523-4.478-10-10-10h-63c-5.522,0-10,4.477-10,10v30h-20v-63h226V203z"/>
	</g>
</g>
<g>
</g>
<g>
</g>
<g>
</g>
<g>
</g>
<g>
</g>
<g>
</g>
<g>
</g>
<g>
</g>
<g>
</g>
<g>
</g>
<g>
</g>
<g>
</g>
<g>
</g>
<g>
</g>
<g>
</g>
</svg>
