<?xml version="1.0" encoding="iso-8859-1"?>
<!-- Generator: Adobe Illustrator 19.0.0, SVG Export Plug-In . SVG Version: 6.00 Build 0)  -->
<svg version="1.1" id="Capa_1" xmlns="http://www.w3.org/2000/svg" xmlns:xlink="http://www.w3.org/1999/xlink" x="0px" y="0px"
	 viewBox="0 0 512 512" style="enable-background:new 0 0 512 512;" xml:space="preserve">
<g>
	<g>
		<path d="M250,312c-5.52,0-10,4.48-10,10c0,5.52,4.48,10,10,10s10-4.48,10-10C260,316.48,255.52,312,250,312z"/>
	</g>
</g>
<g>
	<g>
		<path d="M250,372c-5.52,0-10,4.48-10,10c0,5.52,4.48,10,10,10s10-4.48,10-10C260,376.48,255.52,372,250,372z"/>
	</g>
</g>
<g>
	<g>
		<path d="M482,40H310.28c-2.63,0-5.207-1.068-7.069-2.932L274.932,8.789C269.346,3.203,261.614,0,253.72,0H122
			c-16.542,0-30,13.458-30,30v102H30c-16.542,0-30,13.458-30,30v320c0,16.542,13.458,30,30,30h360c16.542,0,30-13.458,30-30V380h62
			c16.542,0,30-13.458,30-30V70C512,53.458,498.542,40,482,40z M400,482c0,5.514-4.486,10-10,10H30c-5.514,0-10-4.486-10-10V272h380
			V482z M400,252H20v-90c0-5.514,4.486-10,10-10h131.72c2.629,0,5.206,1.068,7.069,2.932l28.28,28.279
			c5.586,5.586,13.317,8.789,21.211,8.789H390c5.514,0,10,4.486,10,10V252z M492,350c0,5.514-4.486,10-10,10h-62V202
			c0-16.542-13.458-30-30-30H218.28c-2.629,0-5.206-1.068-7.069-2.932l-28.28-28.279c-5.586-5.586-13.317-8.789-21.211-8.789H112V30
			c0-5.514,4.486-10,10-10h131.72c2.63,0,5.207,1.068,7.069,2.932l28.279,28.279C294.654,56.797,302.386,60,310.28,60H482
			c5.514,0,10,4.486,10,10V350z"/>
	</g>
</g>
<g>
	<g>
		<path d="M350,312h-60c-5.522,0-10,4.478-10,10c0,5.522,4.478,10,10,10h60c5.522,0,10-4.478,10-10C360,316.478,355.522,312,350,312
			z"/>
	</g>
</g>
<g>
	<g>
		<path d="M350,372h-60c-5.522,0-10,4.478-10,10c0,5.522,4.478,10,10,10h60c5.522,0,10-4.478,10-10C360,376.478,355.522,372,350,372
			z"/>
	</g>
</g>
<g>
</g>
<g>
</g>
<g>
</g>
<g>
</g>
<g>
</g>
<g>
</g>
<g>
</g>
<g>
</g>
<g>
</g>
<g>
</g>
<g>
</g>
<g>
</g>
<g>
</g>
<g>
</g>
<g>
</g>
</svg>
