<?xml version="1.0" encoding="iso-8859-1"?>
<!-- Generator: Adobe Illustrator 19.0.0, SVG Export Plug-In . SVG Version: 6.00 Build 0)  -->
<svg version="1.1" id="Capa_1" xmlns="http://www.w3.org/2000/svg" xmlns:xlink="http://www.w3.org/1999/xlink" x="0px" y="0px"
	 viewBox="0 0 512 512" style="enable-background:new 0 0 512 512;" xml:space="preserve">
<g>
	<g>
		<path d="M317.173,195.22c-3.901-3.901-10.232-3.901-14.143,0c-3.911,3.911-3.911,10.242,0,14.143
			c3.911,3.911,10.242,3.911,14.143,0C321.084,205.462,321.084,199.131,317.173,195.22z"/>
	</g>
</g>
<g>
	<g>
		<path d="M108.267,276.32c-7.545-7.551-17.592-11.71-28.291-11.71s-20.746,4.159-28.288,11.707
			c-7.549,7.55-11.707,17.597-11.707,28.292c0,10.694,4.157,20.737,11.704,28.281c7.545,7.551,17.592,11.71,28.291,11.71
			s20.746-4.159,28.285-11.704c7.551-7.545,11.71-17.59,11.71-28.287C119.971,293.914,115.814,283.867,108.267,276.32z
			 M94.116,318.75c-3.766,3.77-8.787,5.845-14.139,5.845c-5.352,0-10.373-2.076-14.139-5.845c-0.002-0.002-0.004-0.004-0.006-0.006
			c-3.769-3.766-5.844-8.785-5.844-14.135c0-5.352,2.076-10.375,5.85-14.149c3.766-3.77,8.787-5.845,14.139-5.845
			c5.352,0,10.373,2.076,14.142,5.848c3.771,3.771,5.847,8.794,5.847,14.146C99.966,309.959,97.891,314.978,94.116,318.75z"/>
	</g>
</g>
<g>
	<g>
		<path d="M235.575,403.628c-7.55-7.548-17.597-11.707-28.292-11.707c-10.697,0-20.743,4.159-28.282,11.704
			c-7.551,7.545-11.71,17.592-11.71,28.291c0,10.697,4.156,20.741,11.705,28.286c7.545,7.551,17.59,11.709,28.287,11.709
			c10.695,0,20.742-4.158,28.289-11.704c7.551-7.545,11.709-17.592,11.709-28.291C247.281,421.217,243.123,411.169,235.575,403.628z
			 M221.429,446.058c-3.771,3.772-8.794,5.848-14.146,5.848c-5.35,0-10.37-2.076-14.135-5.845c-0.002-0.002-0.004-0.004-0.006-0.006
			c-3.769-3.766-5.844-8.787-5.844-14.139c0-5.352,2.076-10.373,5.85-14.145c3.766-3.77,8.786-5.845,14.135-5.845
			c5.351,0,10.375,2.076,14.149,5.851c3.769,3.766,5.844,8.787,5.844,14.139C227.276,437.268,225.201,442.29,221.429,446.058z"/>
	</g>
</g>
<g>
	<g>
		<path d="M509.069,3.031c-2.229-2.227-5.379-3.271-8.489-2.828c-14.682,2.102-29.344,5.286-43.583,9.468
			c-0.011,0.003-0.023,0.007-0.034,0.01c-0.039,0.012-0.078,0.023-0.117,0.036c-49.59,14.605-95.118,41.643-131.681,78.207
			l-92.862,93.151l-35.36,35.368l-9.237-9.243c-10.41-10.411-26.668-11.756-38.659-3.199c-0.203,0.145-0.401,0.298-0.593,0.457
			l-33.688,28.072c-30.405-14.734-67.059-8.813-91.372,15.492c-31.189,31.199-31.189,81.966,0.002,113.169
			c15.6,15.595,36.092,23.393,56.583,23.393c20.473,0,40.946-7.785,56.539-23.351c0.008-0.009,0.018-0.015,0.026-0.024l80.843-80.42
			c0.267-0.217,0.526-0.449,0.774-0.697l13.984-13.984l0.141-0.14c0.003-0.003,0.005-0.005,0.007-0.008l14.153-14.153
			c9.22-9.22,22.995-11.169,34.147-5.856l-34.13,34.122l-95.743,95.243c-0.005,0.005-0.009,0.011-0.014,0.016
			c-0.002,0.002-0.003,0.003-0.005,0.005c-31.188,31.199-31.188,81.966,0.002,113.169c15.601,15.595,36.091,23.392,56.583,23.392
			c20.492-0.001,40.986-7.799,56.587-23.395c24.276-24.286,30.209-60.89,15.533-91.275l28.438-33.177
			c0.19-0.223,0.372-0.453,0.542-0.692c8.563-11.977,7.221-28.236-3.194-38.665l-9.232-9.231l55.363-55.371
			c0.888-0.888,1.564-1.905,2.048-2.988c2.215-1.589,4.309-3.359,6.26-5.309l64.57-64.86c23.61-23.61,43.15-50.724,58.081-80.588
			c14.932-29.863,24.896-61.766,29.617-94.821C512.344,8.403,511.295,5.258,509.069,3.031z M122.433,347.026
			c-0.004,0.004-0.007,0.008-0.011,0.012c-0.002,0.002-0.004,0.004-0.006,0.006c-23.401,23.394-61.479,23.393-84.878,0.002
			c-23.394-23.402-23.394-61.48-0.003-84.878c19.52-19.511,49.642-23.238,73.262-9.067c0.2,0.121,0.408,0.224,0.615,0.33
			c0.113,0.058,0.223,0.124,0.336,0.177c0.137,0.064,0.278,0.114,0.417,0.171c0.192,0.079,0.382,0.16,0.576,0.227
			c0.11,0.037,0.221,0.065,0.332,0.099c0.228,0.069,0.456,0.136,0.687,0.188c0.102,0.023,0.205,0.04,0.308,0.059
			c0.24,0.047,0.48,0.088,0.721,0.116c0.107,0.013,0.214,0.02,0.322,0.03c0.234,0.02,0.468,0.034,0.703,0.037
			c0.055,0.001,0.109,0.009,0.164,0.009c0.085,0,0.17-0.009,0.256-0.011c0.143-0.004,0.285-0.008,0.427-0.018
			c0.179-0.012,0.358-0.032,0.537-0.054c0.116-0.014,0.232-0.026,0.347-0.044c0.228-0.036,0.455-0.084,0.681-0.136
			c0.066-0.015,0.133-0.026,0.199-0.043c0.596-0.15,1.182-0.356,1.75-0.619c0.076-0.035,0.149-0.077,0.224-0.115
			c0.194-0.096,0.388-0.194,0.577-0.303c0.128-0.074,0.251-0.156,0.375-0.236c0.13-0.083,0.261-0.165,0.388-0.255
			c0.141-0.1,0.278-0.208,0.414-0.315c0.073-0.058,0.15-0.108,0.222-0.168l38.542-32.117c3.972-2.658,9.24-2.159,12.634,1.236
			l16.304,16.314c0.033,0.033,0.069,0.06,0.102,0.092l21.106,21.105L122.433,347.026z M292.319,351.419l-32.432,37.836
			c-0.004,0.004-0.008,0.009-0.012,0.013l-0.119,0.139c-0.056,0.065-0.102,0.136-0.156,0.202c-0.142,0.174-0.282,0.349-0.411,0.531
			c-0.079,0.112-0.149,0.226-0.223,0.34c-0.101,0.156-0.202,0.311-0.294,0.471c-0.085,0.148-0.16,0.299-0.237,0.45
			c-0.067,0.132-0.135,0.263-0.196,0.398c-0.079,0.175-0.148,0.353-0.217,0.531c-0.046,0.119-0.093,0.238-0.134,0.358
			c-0.064,0.187-0.118,0.375-0.17,0.564c-0.034,0.122-0.068,0.243-0.097,0.366c-0.043,0.182-0.077,0.365-0.109,0.549
			c-0.025,0.138-0.049,0.275-0.068,0.414c-0.022,0.167-0.037,0.334-0.051,0.501c-0.013,0.16-0.026,0.319-0.032,0.48
			c-0.005,0.147-0.004,0.294-0.002,0.442c0.001,0.179,0.005,0.358,0.016,0.538c0.008,0.134,0.023,0.267,0.037,0.4
			c0.019,0.188,0.04,0.375,0.07,0.562c0.022,0.134,0.05,0.267,0.077,0.4c0.036,0.179,0.073,0.358,0.12,0.535
			c0.04,0.153,0.088,0.303,0.135,0.453c0.048,0.152,0.094,0.304,0.149,0.455c0.068,0.185,0.146,0.366,0.225,0.548
			c0.049,0.113,0.095,0.227,0.149,0.339c0.103,0.215,0.219,0.425,0.338,0.633c0.036,0.064,0.065,0.13,0.103,0.193
			c14.188,23.625,10.466,53.763-9.049,73.287c-23.403,23.393-61.48,23.393-84.879,0.003c-23.39-23.399-23.393-61.468-0.01-84.871
			l88.661-88.197l37.541,37.541C294.428,342.222,294.941,347.46,292.319,351.419z M281.814,301.312l-14.149-14.149l28.994-28.988
			c6.241,4.151,13.236,6.782,20.464,7.822L281.814,301.312z M410.039,172.799l-64.57,64.86c-2.156,2.156-4.6,3.96-7.26,5.358
			c-11.694,6.141-25.832,3.987-35.178-5.358c-19.5-19.498-51.228-19.5-70.729,0l-7.07,7.07l-14.142-14.142l35.369-35.377
			l92.861-93.15c30.085-30.085,66.671-53.277,106.622-67.723c-11.762,43.009-34.18,82.447-64.184,112.451l-28.287,28.287
			c-3.906,3.906-3.906,10.239,0,14.146c1.953,1.952,4.513,2.93,7.073,2.93s5.119-0.977,7.073-2.93l28.287-28.287
			c35.297-35.298,60.865-82.569,72.418-133.663c7.089-1.925,14.269-3.598,21.494-4.984
			C478.898,78.937,450.889,131.947,410.039,172.799z"/>
	</g>
</g>
<g>
</g>
<g>
</g>
<g>
</g>
<g>
</g>
<g>
</g>
<g>
</g>
<g>
</g>
<g>
</g>
<g>
</g>
<g>
</g>
<g>
</g>
<g>
</g>
<g>
</g>
<g>
</g>
<g>
</g>
</svg>
