<?xml version="1.0" encoding="iso-8859-1"?>
<!-- Generator: Adobe Illustrator 19.0.0, SVG Export Plug-In . SVG Version: 6.00 Build 0)  -->
<svg version="1.1" id="Capa_1" xmlns="http://www.w3.org/2000/svg" xmlns:xlink="http://www.w3.org/1999/xlink" x="0px" y="0px"
	 viewBox="0 0 512 512" style="enable-background:new 0 0 512 512;" xml:space="preserve">
<g>
	<g>
		<path d="M462,216c-5.52,0-10,4.48-10,10s4.48,10,10,10c5.52,0,10-4.48,10-10S467.52,216,462,216z"/>
	</g>
</g>
<g>
	<g>
		<path d="M50,216c-5.52,0-10,4.48-10,10s4.48,10,10,10s10-4.48,10-10S55.52,216,50,216z"/>
	</g>
</g>
<g>
	<g>
		<path d="M482,56H231.29c-8.131,0-16.025,3.367-21.66,9.241l-45.677,47.667c-1.891,1.965-4.527,3.092-7.233,3.092H146V86
			c0-5.523-4.477-10-10-10H50c-5.523,0-10,4.477-10,10v30c-22.056,0-40,17.944-40,40v260c0,22.056,17.944,40,40,40h432
			c22.056,0,40-17.944,40-40V86C512,69.458,498.542,56,482,56z M60,96h66v20H60V96z M20,196h142.225
			C139.221,219.993,126,252.163,126,286c0,33.837,13.221,66.008,36.225,90H20V196z M193.263,195.638
			C211.72,182.791,233.414,176,256,176s44.28,6.791,62.737,19.638c0.001,0,0.001,0.001,0.002,0.001
			C348.332,216.229,366,250.008,366,286s-17.668,69.771-47.263,90.362C300.28,389.209,278.586,396,256,396
			s-44.28-6.791-62.739-19.639C163.667,355.771,146,321.991,146,286C146,250.009,163.667,216.229,193.263,195.638z M492,416
			c0,11.028-8.972,20-20,20H40c-11.028,0-20-8.972-20-20v-20h166.56c0.05,0,0.097-0.007,0.147-0.007
			C207.438,409.092,231.267,416,256,416c24.734,0,48.563-6.908,69.293-20.007c0.05,0.001,0.098,0.007,0.148,0.007H492V416z M492,376
			H349.775C372.779,352.007,386,319.836,386,286c0-33.837-13.221-66.008-36.225-90H492V376z M492,176H325.44
			c-0.05,0-0.098,0.007-0.147,0.007C304.562,162.908,280.733,156,256,156c-24.733,0-48.563,6.908-69.293,20.007
			c-0.049-0.001-0.097-0.007-0.147-0.007H20v-20c0-11.028,8.972-20,20-20h10h86h20.72c8.116,0,16.006-3.363,21.66-9.241
			l45.686-47.676c1.879-1.959,4.512-3.083,7.224-3.083H482c5.514,0,10,4.486,10,10V176z"/>
	</g>
</g>
<g>
	<g>
		<path d="M462,96h-86c-5.522,0-10,4.477-10,10v40c0,5.523,4.478,10,10,10h86c5.522,0,10-4.477,10-10v-40
			C472,100.477,467.522,96,462,96z M452,136h-66v-20h66V136z"/>
	</g>
</g>
<g>
	<g>
		<path d="M462,256c-5.522,0-10,4.477-10,10v80c0,5.523,4.478,10,10,10c5.522,0,10-4.477,10-10v-80C472,260.477,467.522,256,462,256
			z"/>
	</g>
</g>
<g>
	<g>
		<path d="M50,256c-5.523,0-10,4.477-10,10v80c0,5.523,4.477,10,10,10s10-4.477,10-10v-80C60,260.477,55.523,256,50,256z"/>
	</g>
</g>
<g>
	<g>
		<path d="M256,216c-38.598,0-70,31.402-70,70c0,38.598,31.402,70,70,70c38.598,0,70-31.402,70-70C326,247.402,294.598,216,256,216z
			 M256,336c-27.57,0-50-22.43-50-50s22.43-50,50-50s50,22.43,50,50S283.57,336,256,336z"/>
	</g>
</g>
<g>
</g>
<g>
</g>
<g>
</g>
<g>
</g>
<g>
</g>
<g>
</g>
<g>
</g>
<g>
</g>
<g>
</g>
<g>
</g>
<g>
</g>
<g>
</g>
<g>
</g>
<g>
</g>
<g>
</g>
</svg>
