<?xml version="1.0" encoding="iso-8859-1"?>
<!-- Generator: Adobe Illustrator 19.0.0, SVG Export Plug-In . SVG Version: 6.00 Build 0)  -->
<svg version="1.1" id="Capa_1" xmlns="http://www.w3.org/2000/svg" xmlns:xlink="http://www.w3.org/1999/xlink" x="0px" y="0px"
	 viewBox="0 0 512 512" style="enable-background:new 0 0 512 512;" xml:space="preserve">
<g>
	<g>
		<path d="M251.79,259.924c-3.899-3.9-10.239-3.9-14.138,0c-3.909,3.909-3.909,10.239,0,14.148c3.899,3.899,10.239,3.899,14.138,0
			C255.699,270.162,255.699,263.833,251.79,259.924z"/>
	</g>
</g>
<g>
	<g>
		<path d="M223.338,288.032c-3.917-3.89-10.249-3.867-14.14,0.052l-70.981,71.501c-3.891,3.919-3.867,10.25,0.051,14.14
			c1.951,1.937,4.497,2.903,7.044,2.903c2.571,0,5.141-0.986,7.096-2.955l70.981-71.501
			C227.28,298.253,227.257,291.922,223.338,288.032z"/>
	</g>
</g>
<g>
	<g>
		<path d="M452.074,43.012c-11.016-6.886-24.794-8.959-37.805-5.688c-13.369,3.361-24.503,11.802-31.348,23.771
			c-2.742,4.793-1.078,10.902,3.716,13.644c1.566,0.896,3.272,1.321,4.955,1.321c3.47,0,6.842-1.809,8.688-5.036
			c4.119-7.203,10.819-12.282,18.863-14.305c7.765-1.952,15.904-0.766,22.329,3.252c4.683,2.927,10.852,1.505,13.778-3.179
			C458.179,52.108,456.756,45.94,452.074,43.012z"/>
	</g>
</g>
<g>
	<g>
		<path d="M498.527,42.869c-15.004-23.799-39.316-39.206-66.7-42.27c-27.378-3.067-54.236,6.339-73.692,25.795
			c-9.951,9.952-17.203,21.763-21.553,35.105c-8.241,25.276-26.124,54.166-45.557,73.599l-4.188,4.188l-6.838-6.838
			c-7.55-7.549-17.593-11.706-28.277-11.706s-20.727,4.157-28.277,11.706c-15.595,15.595-15.595,40.971,0,56.565l7.081,7.081
			L102.888,324.223c-9.838,9.839-17.354,22.004-21.732,35.173C66.655,402.883,56.936,412.6,40.838,428.7L8.771,460.766
			c-11.694,11.694-11.694,30.723,0,42.417c5.667,5.666,13.199,8.788,21.208,8.788c8.009,0,15.541-3.121,21.208-8.788l32.064-32.064
			c10.919-10.914,35.228-25.072,68.451-39.868c0.717-0.319,1.184-0.527,1.525-0.683c12.909-4.406,24.829-11.83,34.515-21.516
			l127.622-128.115l7.054,7.054c7.556,7.556,17.599,11.717,28.276,11.717c10.686,0,20.731-4.161,28.288-11.717
			c7.551-7.551,11.709-17.594,11.709-28.277s-4.158-20.726-11.709-28.277l-7.308-7.308l4.167-4.168
			c18.195-18.195,47.6-35.822,74.909-44.905c19.927-6.614,36.496-19.818,47.916-38.185
			C516.495,108.201,516.44,71.305,498.527,42.869z M173.589,394.924c-7.616,7.617-17.017,13.439-27.192,16.846
			c-0.01,0.003-0.021,0.008-0.031,0.011c-0.022,0.007-0.044,0.016-0.067,0.023c-0.066,0.022-0.13,0.05-0.196,0.073
			c-0.164,0.058-0.328,0.115-0.49,0.182c-0.266,0.108-0.526,0.225-0.777,0.354c-0.01,0.005-0.019,0.011-0.028,0.016
			c-0.272,0.123-0.685,0.306-1.24,0.554c-25.046,11.155-58.293,27.84-74.454,43.994l-32.066,32.066
			c-1.89,1.89-4.399,2.931-7.068,2.931c-2.669,0-5.178-1.041-7.068-2.931c-1.889-1.889-2.929-4.398-2.929-7.068
			c0-2.67,1.04-5.18,2.928-7.068l32.067-32.066c18.62-18.62,29.897-31.382,45.152-77.127c3.406-10.242,9.249-19.699,16.914-27.363
			l127.622-128.114l56.56,56.559L173.589,394.924z M364.845,273.85c-3.779,3.779-8.805,5.86-14.148,5.86
			c-5.337,0-10.358-2.082-14.137-5.86l-14.147-14.147c-0.001-0.001-0.003-0.003-0.004-0.005c-0.001-0.001-0.003-0.002-0.004-0.004
			l-70.696-70.696c0,0,0,0-0.001-0.001l-0.001-0.001l-14.124-14.124c-3.78-3.779-5.86-8.802-5.86-14.142
			c0-5.34,2.082-10.363,5.86-14.142c3.772-3.772,8.792-5.85,14.136-5.85s10.365,2.078,14.138,5.85l13.9,13.901
			c0.002,0.002,0.004,0.005,0.007,0.008s0.005,0.004,0.008,0.007l70.693,70.695l14.379,14.378
			C372.64,253.372,372.64,266.056,364.845,273.85z M481.687,126.31c-8.922,14.349-21.796,24.642-37.239,29.767
			c-30.039,9.991-62.518,29.516-82.744,49.741l-4.168,4.168l-56.56-56.559l4.188-4.188c21.49-21.491,41.286-53.498,50.43-81.54
			c3.365-10.321,8.977-19.46,16.681-27.164c15.133-15.133,36.024-22.445,57.328-20.061c21.308,2.385,40.265,14.435,52.006,33.059
			C495.254,75.192,495.285,104.439,481.687,126.31z"/>
	</g>
</g>
<g>
</g>
<g>
</g>
<g>
</g>
<g>
</g>
<g>
</g>
<g>
</g>
<g>
</g>
<g>
</g>
<g>
</g>
<g>
</g>
<g>
</g>
<g>
</g>
<g>
</g>
<g>
</g>
<g>
</g>
</svg>
