<?xml version="1.0" encoding="iso-8859-1"?>
<!-- Generator: Adobe Illustrator 19.0.0, SVG Export Plug-In . SVG Version: 6.00 Build 0)  -->
<svg version="1.1" id="Capa_1" xmlns="http://www.w3.org/2000/svg" xmlns:xlink="http://www.w3.org/1999/xlink" x="0px" y="0px"
	 viewBox="0 0 512.001 512.001" style="enable-background:new 0 0 512.001 512.001;" xml:space="preserve">
<g>
	<g>
		<path d="M502.001,438c-5.52,0-10,4.48-10,10c0,5.52,4.48,10,10,10c5.52,0,10-4.48,10-10C512,442.48,507.521,438,502.001,438z"/>
	</g>
</g>
<g>
	<g>
		<path d="M256.001,0c-5.52,0-10,4.48-10,10s4.48,10,10,10s10-4.48,10-10S261.521,0,256.001,0z"/>
	</g>
</g>
<g>
	<g>
		<path d="M10.001,438c-5.52,0-10,4.48-10,10c0,5.52,4.48,10,10,10s10-4.48,10-10C20.001,442.48,15.521,438,10.001,438z"/>
	</g>
</g>
<g>
	<g>
		<path d="M467.537,419.48l-41.536-25.529V198.65c0-3.74-2.087-7.168-5.41-8.885l-154.59-79.855V50c0-5.523-4.478-10-10-10
			c-5.522,0-10,4.477-10,10v59.91L91.412,189.765c-3.324,1.717-5.411,5.145-5.411,8.885v195.301l-41.536,25.53
			c-4.705,2.892-6.175,9.051-3.283,13.756c1.889,3.072,5.169,4.765,8.529,4.765c1.786,0,3.594-0.479,5.227-1.482l41.099-25.261
			l154.565,99.159c1.645,1.055,3.522,1.583,5.399,1.583c1.884,0,3.767-0.531,5.416-1.594l154.547-99.148l41.1,25.261
			c1.633,1.004,3.44,1.482,5.227,1.482c3.359,0,6.641-1.693,8.529-4.765C473.712,428.531,472.242,422.373,467.537,419.48z
			 M246.001,483.704l-131.047-84.072l94.824-58.282c4.704-2.892,6.175-9.051,3.283-13.756c-2.892-4.706-9.052-6.174-13.756-3.283
			l-93.304,57.347v-163.86l140,83.869V483.704z M256.001,284.343l-140.807-84.352l130.807-67.57V236c0,5.523,4.478,10,10,10
			c5.522,0,10-4.477,10-10V132.421l130.807,67.57L256.001,284.343z M406.001,381.658l-93.304-57.348
			c-4.703-2.892-10.862-1.421-13.756,3.283c-2.892,4.705-1.422,10.864,3.283,13.756l94.824,58.282l-131.047,84.072V301.666
			l140-83.869V381.658z"/>
	</g>
</g>
<g>
</g>
<g>
</g>
<g>
</g>
<g>
</g>
<g>
</g>
<g>
</g>
<g>
</g>
<g>
</g>
<g>
</g>
<g>
</g>
<g>
</g>
<g>
</g>
<g>
</g>
<g>
</g>
<g>
</g>
</svg>
