<?xml version="1.0" encoding="iso-8859-1"?>
<!-- Generator: Adobe Illustrator 19.0.0, SVG Export Plug-In . SVG Version: 6.00 Build 0)  -->
<svg version="1.1" id="Capa_1" xmlns="http://www.w3.org/2000/svg" xmlns:xlink="http://www.w3.org/1999/xlink" x="0px" y="0px"
	 viewBox="0 0 512.003 512.003" style="enable-background:new 0 0 512.003 512.003;" xml:space="preserve">
<g>
	<g>
		<path d="M106,229.003c-5.52,0-10,4.48-10,10c0,5.52,4.48,10,10,10s10-4.48,10-10C116,233.483,111.52,229.003,106,229.003z"/>
	</g>
</g>
<g>
	<g>
		<path d="M106,269.003c-5.523,0-10,4.477-10,10v140c0,5.523,4.477,10,10,10s10-4.477,10-10v-140
			C116,273.48,111.523,269.003,106,269.003z"/>
	</g>
</g>
<g>
	<g>
		<path d="M296,453.723V418.4c0-0.009,0-0.018,0-0.027V239.632c0-0.009,0-0.018,0-0.027v-35.306
			c4.169-1.471,7.991-3.866,11.211-7.085c5.668-5.668,8.789-13.201,8.789-21.211c0-13.182-8.549-24.397-20.392-28.413
			c-3.636-39.248-32.359-73.105-69.608-82.18V10.003c0-5.523-4.477-10-10-10h-40c-27.57,0-50,22.43-50,50v15.416
			c-16.403,3.997-31.719,12.893-43.819,25.627c-14.668,15.438-23.811,35.667-25.773,56.526c-4.327,1.456-8.295,3.896-11.619,7.22
			C39.121,160.46,36,167.993,36,176.003c0,13.036,8.361,24.152,20,28.28v249.424c-4.169,1.471-7.991,3.866-11.211,7.085
			C39.121,466.46,36,473.993,36,482.003c0,16.542,13.458,30,30,30h220c8.01,0,15.542-3.121,21.211-8.789
			c5.668-5.668,8.789-13.201,8.789-21.211C316,468.967,307.639,457.851,296,453.723z M146,50.003c0-16.542,13.458-30,30-30h30v43
			h-60V50.003z M96.679,104.821c11.084-11.663,25.525-19.206,40.665-21.238c2.864-0.385,5.776-0.581,8.657-0.581h60
			c2.88,0,5.793,0.195,8.657,0.581c31.171,4.194,56.222,30.706,60.648,62.419H76.713C78.876,130.789,85.888,116.179,96.679,104.821z
			 M58.931,168.934c1.891-1.89,4.401-2.931,7.069-2.931h220c5.514,0,10,4.486,10,10c0,2.668-1.041,5.179-2.931,7.069
			c-1.891,1.89-4.401,2.931-7.069,2.931H66c-5.514,0-10-4.486-10-10C56,173.334,57.041,170.824,58.931,168.934z M176,329.003
			c0,55.14,44.86,100,100,100v23H76v-246h200v23C220.86,229.003,176,273.862,176,329.003z M276,249.003v160
			c-44.112,0-80-35.888-80-80S231.888,249.003,276,249.003z M293.07,489.071c-1.891,1.89-4.401,2.931-7.069,2.931H66
			c-5.514,0-10-4.486-10-10c0-2.668,1.041-5.179,2.931-7.069c1.891-1.89,4.401-2.931,7.069-2.931h220c5.514,0,10,4.486,10,10
			C296,484.671,294.959,487.181,293.07,489.071z"/>
	</g>
</g>
<g>
	<g>
		<path d="M467.24,80.08l-160-20c-5.478-0.687-10.478,3.202-11.163,8.683c-0.685,5.48,3.202,10.478,8.683,11.163l160,20
			c0.421,0.053,0.839,0.078,1.253,0.078c4.97,0,9.277-3.702,9.91-8.761C476.608,85.763,472.721,80.765,467.24,80.08z"/>
	</g>
</g>
<g>
	<g>
		<path d="M475.924,8.762c-0.686-5.48-5.679-9.37-11.163-8.683l-160,20c-5.48,0.685-9.367,5.683-8.683,11.163
			c0.632,5.06,4.94,8.761,9.91,8.761c0.413,0,0.832-0.025,1.253-0.078l160-20C472.721,19.24,476.608,14.242,475.924,8.762z"/>
	</g>
</g>
<g>
</g>
<g>
</g>
<g>
</g>
<g>
</g>
<g>
</g>
<g>
</g>
<g>
</g>
<g>
</g>
<g>
</g>
<g>
</g>
<g>
</g>
<g>
</g>
<g>
</g>
<g>
</g>
<g>
</g>
</svg>
