<?xml version="1.0" encoding="iso-8859-1"?>
<!-- Generator: Adobe Illustrator 19.0.0, SVG Export Plug-In . SVG Version: 6.00 Build 0)  -->
<svg version="1.1" id="Capa_1" xmlns="http://www.w3.org/2000/svg" xmlns:xlink="http://www.w3.org/1999/xlink" x="0px" y="0px"
	 viewBox="0 0 512 512" style="enable-background:new 0 0 512 512;" xml:space="preserve">
<g>
	<g>
		<path d="M470.08,377.761c-3.91-3.9-10.24-3.9-14.15,0c-3.9,3.91-3.9,10.24,0,14.14c3.91,3.91,10.24,3.91,14.15,0
			C473.98,388.001,473.98,381.671,470.08,377.761z"/>
	</g>
</g>
<g>
	<g>
		<path d="M256,246.001c-5.52,0-10,4.48-10,10s4.48,10,10,10s10-4.48,10-10C266,250.48,261.52,246.001,256,246.001z"/>
	</g>
</g>
<g>
	<g>
		<path d="M482,0.001H30c-16.542,0-30,13.458-30,30v352c0,16.542,13.458,30,30,30h149.15c-3.626,21.342-18.684,39.304-39.743,46.323
			l-12.57,4.19c-4.083,1.36-6.837,5.182-6.837,9.486v30c0,5.522,4.477,10,10,10h212h140c16.542,0,30-13.458,30-30V236.001v-206
			C512,13.459,498.542,0.001,482,0.001z M30,392.001c-5.514,0-10-4.486-10-10v-53h292v63H30z M140,492.001v-12.793l5.732-1.91
			c29.255-9.752,49.851-35.297,53.633-65.297H312v70c0,3.506,0.61,6.87,1.72,10H140z M492,482.001c0,5.514-4.486,10-10,10H342
			c-5.514,0-10-4.486-10-10v-10h160V482.001z M492,452.001H332v-186h160V452.001z M492,246.001H332v-10c0-5.514,4.486-10,10-10h140
			c5.514,0,10,4.486,10,10V246.001z M492,207.72c-3.13-1.11-6.494-1.72-10-1.72H342c-16.542,0-30,13.458-30,30v73H20v-279
			c0-5.514,4.486-10,10-10h452c5.514,0,10,4.486,10,10V207.72z"/>
	</g>
</g>
<g>
	<g>
		<path d="M442,63.001H70c-5.523,0-10,4.478-10,10v63c0,5.522,4.477,10,10,10h372c5.523,0,10-4.478,10-10v-63
			C452,67.478,447.523,63.001,442,63.001z M432,126.001H80v-43h352V126.001z"/>
	</g>
</g>
<g>
	<g>
		<path d="M256,186.001H70c-5.523,0-10,4.478-10,10c0,5.522,4.477,10,10,10h186c5.523,0,10-4.478,10-10
			C266,190.478,261.523,186.001,256,186.001z"/>
	</g>
</g>
<g>
	<g>
		<path d="M210,246.001H70c-5.523,0-10,4.478-10,10c0,5.522,4.477,10,10,10h140c5.523,0,10-4.478,10-10
			C220,250.478,215.523,246.001,210,246.001z"/>
	</g>
</g>
<g>
	<g>
		<path d="M276,352.001h-20c-5.523,0-10,4.478-10,10c0,5.522,4.477,10,10,10h20c5.523,0,10-4.478,10-10
			C286,356.478,281.523,352.001,276,352.001z"/>
	</g>
</g>
<g>
	<g>
		<path d="M462,289.001H362c-5.523,0-10,4.478-10,10v40c0,5.522,4.477,10,10,10h100c5.523,0,10-4.478,10-10v-40
			C472,293.478,467.523,289.001,462,289.001z M452,329.001h-80v-20h80V329.001z"/>
	</g>
</g>
<g>
	<g>
		<path d="M422,372.001h-60c-5.523,0-10,4.478-10,10c0,5.522,4.477,10,10,10h60c5.523,0,10-4.478,10-10
			C432,376.478,427.523,372.001,422,372.001z"/>
	</g>
</g>
<g>
</g>
<g>
</g>
<g>
</g>
<g>
</g>
<g>
</g>
<g>
</g>
<g>
</g>
<g>
</g>
<g>
</g>
<g>
</g>
<g>
</g>
<g>
</g>
<g>
</g>
<g>
</g>
<g>
</g>
</svg>
