<?xml version="1.0" encoding="iso-8859-1"?>
<!-- Generator: Adobe Illustrator 19.0.0, SVG Export Plug-In . SVG Version: 6.00 Build 0)  -->
<svg version="1.1" id="Capa_1" xmlns="http://www.w3.org/2000/svg" xmlns:xlink="http://www.w3.org/1999/xlink" x="0px" y="0px"
	 viewBox="0 0 512 512" style="enable-background:new 0 0 512 512;" xml:space="preserve">
<g>
	<g>
		<path d="M362,386c-5.52,0-10,4.48-10,10c0,5.52,4.48,10,10,10c5.52,0,10-4.48,10-10C372,390.48,367.52,386,362,386z"/>
	</g>
</g>
<g>
	<g>
		<path d="M150,386c-5.52,0-10,4.48-10,10c0,5.52,4.48,10,10,10s10-4.48,10-10C160,390.48,155.52,386,150,386z"/>
	</g>
</g>
<g>
	<g>
		<path d="M502,26h-80c-5.523,0-10,4.478-10,10v270H189.87c8.381-8.919,16.482-17.874,24.211-26.774
			c25.299-29.138,45.767-56.83,58.333-78.843c0.814,0.04,1.627,0.06,2.438,0.06c13.125,0,25.834-5.167,35.32-14.652
			c16.965-16.965,28.846-78.048,31.055-90.121c0.592-3.231-0.442-6.547-2.765-8.87c-2.323-2.323-5.638-3.356-8.871-2.767
			c-12.074,2.208-73.167,14.08-90.133,31.046c-10.333,10.334-15.489,24.37-14.518,38.653c-21.94,12.591-49.506,33.005-78.497,58.186
			c-0.019,0.016-0.037,0.032-0.055,0.049c-15.489,13.457-31.027,27.932-46.388,43.187V116.005c0-0.361-0.024-0.722-0.063-1.082
			c-0.011-0.103-0.03-0.205-0.044-0.307c-0.036-0.257-0.079-0.513-0.135-0.768c-0.025-0.111-0.053-0.221-0.081-0.332
			c-0.064-0.25-0.138-0.498-0.222-0.744c-0.034-0.099-0.066-0.197-0.103-0.295c-0.102-0.271-0.218-0.538-0.344-0.801
			c-0.023-0.049-0.04-0.101-0.064-0.149l-0.072-0.143c-0.009-0.016-0.016-0.033-0.025-0.05L58.944,31.528
			C57.25,28.14,53.788,26,50,26s-7.25,2.14-8.944,5.528L1.152,111.335c-0.009,0.016-0.016,0.033-0.025,0.05l-0.072,0.143
			c-0.024,0.049-0.041,0.1-0.064,0.149c-0.126,0.263-0.242,0.53-0.344,0.801c-0.037,0.098-0.069,0.196-0.103,0.295
			c-0.084,0.246-0.158,0.493-0.222,0.744c-0.028,0.11-0.056,0.22-0.081,0.332c-0.056,0.255-0.099,0.51-0.135,0.768
			c-0.014,0.103-0.033,0.204-0.044,0.307C0.024,115.283,0,115.644,0,116.005V396c0,49.626,40.374,90,90,90h332
			c49.626,0,90-40.374,90-90V36C512,30.478,507.523,26,502,26z M253.601,129.222c7.722-7.723,38.917-16.841,65.001-22.565
			c-5.729,26.08-14.851,57.27-22.574,64.992c-7.12,7.12-17.27,10.185-27.147,8.198c-0.001,0-0.002,0-0.003-0.001
			c-5.796-1.163-11.079-3.998-15.278-8.196c-4.042-4.043-6.829-9.11-8.061-14.666C243.29,146.897,246.304,136.52,253.601,129.222z
			 M230.532,173.652c2.33,4.443,5.326,8.538,8.926,12.139c3.803,3.802,8.145,6.927,12.867,9.306
			c-11.075,18.452-27.64,40.837-47.881,64.651c-7.741-4.986-14.971-10.807-21.553-17.39c-6.368-6.368-12.036-13.357-16.928-20.839
			C189.745,201.296,212.107,184.733,230.532,173.652z M100,283.626c16.734-17.284,33.76-33.675,50.773-48.862
			c5.285,7.765,11.291,15.052,17.975,21.737c6.896,6.896,14.419,13.062,22.438,18.452c-9.249,10.362-18.969,20.759-29.023,31.047
			H100V283.626z M50,58.36l27.582,55.164c-16.342,12.029-38.823,12.029-55.165,0L50,58.36z M20,135.412
			c9.403,4.739,19.699,7.125,30,7.125s20.597-2.386,30-7.125v171.147c-24.161,2.683-45.463,14.967-60,32.943V135.412z M422,466H90
			c-38.598,0-70-31.402-70-70c0-38.598,31.402-70,70-70h332c38.598,0,70,31.402,70,70C492,434.598,460.598,466,422,466z M492,66h-20
			c-5.523,0-10,4.478-10,10c0,5.522,4.477,10,10,10h20v20h-20c-5.523,0-10,4.478-10,10c0,5.522,4.477,10,10,10h20v20h-20
			c-5.523,0-10,4.478-10,10c0,5.522,4.477,10,10,10h20v20h-20c-5.523,0-10,4.478-10,10c0,5.522,4.477,10,10,10h20v20h-20
			c-5.523,0-10,4.478-10,10c0,5.522,4.477,10,10,10h20v20h-20c-5.523,0-10,4.478-10,10c0,5.522,4.477,10,10,10h20v53.501
			c-14.537-17.975-35.839-30.259-60-32.942V46h60V66z"/>
	</g>
</g>
<g>
	<g>
		<path d="M422,366c-16.542,0-30,13.458-30,30s13.458,30,30,30s30-13.458,30-30S438.542,366,422,366z M422,406
			c-5.514,0-10-4.486-10-10c0-5.514,4.486-10,10-10c5.514,0,10,4.486,10,10C432,401.514,427.514,406,422,406z"/>
	</g>
</g>
<g>
	<g>
		<path d="M90,366c-16.542,0-30,13.458-30,30s13.458,30,30,30s30-13.458,30-30S106.542,366,90,366z M90,406c-5.514,0-10-4.486-10-10
			c0-5.514,4.486-10,10-10s10,4.486,10,10C100,401.514,95.514,406,90,406z"/>
	</g>
</g>
<g>
	<g>
		<path d="M322,386H190c-5.523,0-10,4.478-10,10c0,5.522,4.477,10,10,10h132c5.523,0,10-4.478,10-10
			C332,390.478,327.523,386,322,386z"/>
	</g>
</g>
<g>
</g>
<g>
</g>
<g>
</g>
<g>
</g>
<g>
</g>
<g>
</g>
<g>
</g>
<g>
</g>
<g>
</g>
<g>
</g>
<g>
</g>
<g>
</g>
<g>
</g>
<g>
</g>
<g>
</g>
</svg>
