<?xml version="1.0" encoding="iso-8859-1"?>
<!-- Generator: Adobe Illustrator 19.0.0, SVG Export Plug-In . SVG Version: 6.00 Build 0)  -->
<svg version="1.1" id="Capa_1" xmlns="http://www.w3.org/2000/svg" xmlns:xlink="http://www.w3.org/1999/xlink" x="0px" y="0px"
	 viewBox="0 0 512 512" style="enable-background:new 0 0 512 512;" xml:space="preserve">
<g>
	<g>
		<path d="M410.49,101.51c-3.9-3.91-10.23-3.91-14.14,0c-3.9,3.9-3.9,10.23,0,14.14c3.91,3.9,10.24,3.9,14.14,0
			C414.4,111.74,414.4,105.41,410.49,101.51z"/>
	</g>
</g>
<g>
	<g>
		<path d="M70,392c-16.542,0-30,13.458-30,30s13.458,30,30,30s30-13.458,30-30S86.542,392,70,392z M70,432c-5.514,0-10-4.486-10-10
			c0-5.514,4.486-10,10-10s10,4.486,10,10C80,427.514,75.514,432,70,432z"/>
	</g>
</g>
<g>
	<g>
		<path d="M502,332H180V10c0-5.523-4.477-10-10-10H10C4.477,0,0,4.477,0,10v412c0,49.626,40.374,90,90,90h412
			c5.523,0,10-4.478,10-10V342C512,336.477,507.523,332,502,332z M20,20h140v103H20V20z M20,143h140v103H20V143z M20,266h140v66H90
			c-28.245,0-53.487,13.082-70,33.501V266z M120,492H90c-38.598,0-70-31.402-70-70c0-38.598,31.402-70,70-70h30V492z M246,492H140
			V352h106V492z M369,492H266V352h103V492z M492,492H389V352h103V492z"/>
	</g>
</g>
<g>
	<g>
		<path d="M369,69.353C336.694,50.151,299.694,40,262,40c-14.148,0-28.279,1.42-42,4.222c-5.411,1.105-8.902,6.387-7.797,11.798
			c1.104,5.411,6.381,8.902,11.797,7.798C236.408,61.285,249.192,60,262,60c34.099,0,67.565,9.18,96.78,26.546
			c1.603,0.952,3.362,1.405,5.101,1.405c3.411,0,6.736-1.747,8.605-4.892C375.308,78.311,373.747,72.175,369,69.353z"/>
	</g>
</g>
<g>
	<g>
		<path d="M509.071,222.928c-3.905-3.906-10.237-3.905-14.143,0l-22.973,22.973c-0.708-36.273-10.803-71.767-29.31-102.902
			c-2.822-4.747-8.959-6.308-13.706-3.486c-4.747,2.822-6.308,8.958-3.486,13.706c16.651,28.01,25.751,59.931,26.476,92.567
			l-22.858-22.858c-3.905-3.905-10.237-3.905-14.143,0c-3.906,3.905-3.905,10.238,0.001,14.143l40,40
			c1.953,1.953,4.512,2.929,7.071,2.929s5.119-0.976,7.071-2.929l40-40C512.976,233.166,512.976,226.834,509.071,222.928z"/>
	</g>
</g>
<g>
</g>
<g>
</g>
<g>
</g>
<g>
</g>
<g>
</g>
<g>
</g>
<g>
</g>
<g>
</g>
<g>
</g>
<g>
</g>
<g>
</g>
<g>
</g>
<g>
</g>
<g>
</g>
<g>
</g>
</svg>
