<?xml version="1.0" encoding="iso-8859-1"?>
<!-- Generator: Adobe Illustrator 19.0.0, SVG Export Plug-In . SVG Version: 6.00 Build 0)  -->
<svg version="1.1" id="Capa_1" xmlns="http://www.w3.org/2000/svg" xmlns:xlink="http://www.w3.org/1999/xlink" x="0px" y="0px"
	 viewBox="0 0 512 512" style="enable-background:new 0 0 512 512;" xml:space="preserve">
<g>
	<g>
		<path d="M419,346c-5.52,0-10,4.48-10,10c0,5.52,4.48,10,10,10c5.52,0,10-4.48,10-10C429,350.48,424.52,346,419,346z"/>
	</g>
</g>
<g>
	<g>
		<path d="M339,466c-5.52,0-10,4.48-10,10c0,5.52,4.48,10,10,10c5.52,0,10-4.48,10-10C349,470.48,344.52,466,339,466z"/>
	</g>
</g>
<g>
	<g>
		<path d="M256,146c-5.52,0-10,4.48-10,10s4.48,10,10,10s10-4.48,10-10S261.52,146,256,146z"/>
	</g>
</g>
<g>
	<g>
		<path d="M173,26c-5.52,0-10,4.48-10,10s4.48,10,10,10s10-4.48,10-10S178.52,26,173,26z"/>
	</g>
</g>
<g>
	<g>
		<path d="M93,346c-5.52,0-10,4.48-10,10c0,5.52,4.48,10,10,10s10-4.48,10-10C103,350.48,98.52,346,93,346z"/>
	</g>
</g>
<g>
	<g>
		<path d="M502,106H108.065l31.795-65.641c1.501-3.099,1.302-6.752-0.527-9.67c-1.829-2.918-5.03-4.689-8.473-4.689h-77.5
			c-3.443,0-6.645,1.771-8.473,4.689c-1.829,2.917-2.028,6.571-0.527,9.67L76.155,106H10c-5.523,0-10,4.477-10,10v280
			c0,5.523,4.477,10,10,10h392.155l-31.795,65.641c-1.501,3.099-1.302,6.752,0.527,9.67c1.829,2.918,5.03,4.689,8.473,4.689h77.5
			c3.443,0,6.645-1.771,8.473-4.689c1.829-2.917,2.028-6.571,0.527-9.67L434.065,406H502c5.523,0,10-4.477,10-10V116
			C512,110.477,507.523,106,502,106z M69.315,46h45.59L92.11,93.061L69.315,46z M163,386H20V126h63v190c0,5.523,4.477,10,10,10
			s10-4.477,10-10V126h60V386z M329,386h-63V196c0-5.523-4.477-10-10-10s-10,4.477-10,10v190h-63V126h146V386z M440.905,466h-45.59
			l22.795-47.061L440.905,466z M492,386H349V126h60v190c0,5.523,4.477,10,10,10s10-4.477,10-10V126h63V386z"/>
	</g>
</g>
<g>
	<g>
		<path d="M299,466H93c-5.523,0-10,4.477-10,10s4.477,10,10,10h206c5.523,0,10-4.477,10-10S304.523,466,299,466z"/>
	</g>
</g>
<g>
	<g>
		<path d="M419,26H213c-5.523,0-10,4.477-10,10s4.477,10,10,10h206c5.523,0,10-4.477,10-10S424.523,26,419,26z"/>
	</g>
</g>
<g>
</g>
<g>
</g>
<g>
</g>
<g>
</g>
<g>
</g>
<g>
</g>
<g>
</g>
<g>
</g>
<g>
</g>
<g>
</g>
<g>
</g>
<g>
</g>
<g>
</g>
<g>
</g>
<g>
</g>
</svg>
