<?xml version="1.0" encoding="iso-8859-1"?>
<!-- Generator: Adobe Illustrator 19.0.0, SVG Export Plug-In . SVG Version: 6.00 Build 0)  -->
<svg version="1.1" id="Capa_1" xmlns="http://www.w3.org/2000/svg" xmlns:xlink="http://www.w3.org/1999/xlink" x="0px" y="0px"
	 viewBox="0 0 512.001 512.001" style="enable-background:new 0 0 512.001 512.001;" xml:space="preserve">
<g>
	<g>
		<path d="M356,429c-5.52,0-10,4.48-10,10c0,5.52,4.48,10,10,10c5.52,0,10-4.48,10-10C366,433.48,361.52,429,356,429z"/>
	</g>
</g>
<g>
	<g>
		<path d="M505.153,176.928C499.441,169.983,491.002,166,482,166h-53V30c0-16.542-13.458-30-30-30H113C96.458,0,83,13.458,83,30v136
			H30c-9.002,0-17.441,3.983-23.149,10.923C2.433,182.287,0,189.063,0,196v286c0,8.01,3.121,15.542,8.789,21.211
			c0.019,0.019,0.039,0.036,0.058,0.055c0.025,0.025,0.052,0.049,0.077,0.073C14.576,508.924,22.052,512,30,512h452
			c7.905,0,15.341-3.044,20.983-8.572c0.036-0.034,0.072-0.068,0.108-0.103c0.04-0.039,0.082-0.076,0.121-0.115
			c5.667-5.668,8.789-13.2,8.789-21.21V196C512,189.063,509.567,182.287,505.153,176.928z M429,186h48.679L429,225.092V186z M103,30
			c0-5.514,4.486-10,10-10h286c5.514,0,10,4.486,10,10v211.153L305.523,324.25l-43.121-35.933c-3.709-3.09-9.095-3.09-12.804,0
			l-43.121,35.933L103,241.154V30z M83,186v39.092L34.321,186H83z M20,479.671V200.15l170.803,137.164L20,479.671z M36.446,492
			l176.526-147.127L256,309.017l43.028,35.855L475.554,492H36.446z M492,479.671L321.198,337.313L492,200.15V479.671z"/>
	</g>
</g>
<g>
	<g>
		<path d="M313.071,125.928c-3.905-3.904-10.237-3.904-14.143,0L246,178.857l-32.929-32.929c-3.905-3.904-10.237-3.904-14.143,0
			c-3.905,3.905-3.905,10.237,0,14.143l40.001,40c1.953,1.952,4.512,2.929,7.071,2.929s5.119-0.977,7.071-2.929l60-60
			C316.976,136.167,316.976,129.834,313.071,125.928z"/>
	</g>
</g>
<g>
	<g>
		<path d="M316,429H156c-5.523,0-10,4.478-10,10c0,5.522,4.477,10,10,10h160c5.523,0,10-4.478,10-10
			C326,433.478,321.523,429,316,429z"/>
	</g>
</g>
<g>
	<g>
		<path d="M256,43c-60.654,0-110,49.346-110,110s49.346,110,110,110s110-49.346,110-110S316.654,43,256,43z M256,243
			c-49.626,0-90-40.374-90-90c0-49.626,40.374-90,90-90c49.626,0,90,40.374,90,90S305.626,243,256,243z"/>
	</g>
</g>
<g>
</g>
<g>
</g>
<g>
</g>
<g>
</g>
<g>
</g>
<g>
</g>
<g>
</g>
<g>
</g>
<g>
</g>
<g>
</g>
<g>
</g>
<g>
</g>
<g>
</g>
<g>
</g>
<g>
</g>
</svg>
