<?xml version="1.0" encoding="iso-8859-1"?>
<!-- Generator: Adobe Illustrator 19.0.0, SVG Export Plug-In . SVG Version: 6.00 Build 0)  -->
<svg version="1.1" id="Capa_1" xmlns="http://www.w3.org/2000/svg" xmlns:xlink="http://www.w3.org/1999/xlink" x="0px" y="0px"
	 viewBox="0 0 512 512" style="enable-background:new 0 0 512 512;" xml:space="preserve">
<g>
	<g>
		<path d="M419,126c-5.52,0-10,4.48-10,10s4.48,10,10,10c5.52,0,10-4.48,10-10S424.52,126,419,126z"/>
	</g>
</g>
<g>
	<g>
		<path d="M482,66H98.994C94.348,43.205,74.146,26,50,26C22.43,26,0,48.43,0,76v360c0,2.756,0.229,5.558,0.68,8.326
			C4.547,468.084,26.67,486,52.14,486H462c16.542,0,30-13.458,30-30v-11.72c11.639-4.128,20-15.243,20-28.28V96
			C512,79.458,498.542,66,482,66z M20,76c0-16.542,13.458-30,30-30s30,13.458,30,30v320.027C71.637,389.735,61.247,386,50,386
			s-21.637,3.735-30,10.027V76z M472,456c0,5.514-4.486,10-10,10H52.14c-15.774,0-29.411-10.699-31.72-24.888
			c-0.279-1.71-0.42-3.43-0.42-5.112c0-16.542,13.458-30,30-30s30,13.458,30,30c0,5.522,4.477,10,10,10h83h80h86h80h53V456z
			 M213,302.537c10.301,0,20.597-2.386,30-7.125V426h-60V295.412C192.403,300.151,202.699,302.537,213,302.537z M185.418,273.525
			L213,218.36l27.582,55.165C224.24,285.553,201.76,285.553,185.418,273.525z M399,246h10v20h-30c-5.523,0-10,4.478-10,10
			c0,5.522,4.477,10,10,10h30v20h-10c-5.523,0-10,4.478-10,10c0,5.522,4.477,10,10,10h10v20h-30c-5.523,0-10,4.478-10,10
			c0,5.522,4.477,10,10,10h30v20h-10c-5.523,0-10,4.478-10,10c0,5.522,4.477,10,10,10h10v20h-60V206h60v20h-10
			c-5.523,0-10,4.478-10,10C389,241.522,393.477,246,399,246z M482,426h-53V196c0-5.522-4.477-10-10-10h-80c-5.523,0-10,4.478-10,10
			v230h-66V276.005c0-0.361-0.024-0.722-0.063-1.082c-0.011-0.103-0.03-0.205-0.044-0.307c-0.036-0.257-0.079-0.513-0.135-0.768
			c-0.025-0.111-0.053-0.221-0.081-0.332c-0.064-0.25-0.138-0.498-0.222-0.744c-0.034-0.099-0.066-0.197-0.103-0.295
			c-0.102-0.271-0.218-0.538-0.344-0.801c-0.023-0.049-0.04-0.101-0.064-0.149l-0.072-0.143c-0.009-0.016-0.016-0.033-0.025-0.05
			l-39.904-79.807C220.25,188.14,216.788,186,213,186c-3.788,0-7.25,2.14-8.944,5.528l-39.904,79.807
			c-0.009,0.017-0.016,0.033-0.025,0.05l-0.072,0.143c-0.024,0.049-0.041,0.1-0.064,0.149c-0.126,0.263-0.242,0.53-0.344,0.801
			c-0.037,0.098-0.069,0.196-0.103,0.295c-0.084,0.246-0.158,0.493-0.222,0.744c-0.028,0.11-0.056,0.22-0.081,0.332
			c-0.056,0.255-0.099,0.51-0.135,0.768c-0.014,0.103-0.033,0.204-0.044,0.307c-0.039,0.36-0.063,0.72-0.063,1.082V426h-63V86h382
			c5.514,0,10,4.486,10,10v320H492C492,421.514,487.514,426,482,426z"/>
	</g>
</g>
<g>
	<g>
		<path d="M379,126H173c-5.523,0-10,4.478-10,10c0,5.522,4.477,10,10,10h206c5.523,0,10-4.478,10-10
			C389,130.478,384.523,126,379,126z"/>
	</g>
</g>
<g>
</g>
<g>
</g>
<g>
</g>
<g>
</g>
<g>
</g>
<g>
</g>
<g>
</g>
<g>
</g>
<g>
</g>
<g>
</g>
<g>
</g>
<g>
</g>
<g>
</g>
<g>
</g>
<g>
</g>
</svg>
