<?xml version="1.0" encoding="iso-8859-1"?>
<!-- Generator: Adobe Illustrator 19.0.0, SVG Export Plug-In . SVG Version: 6.00 Build 0)  -->
<svg version="1.1" id="Capa_1" xmlns="http://www.w3.org/2000/svg" xmlns:xlink="http://www.w3.org/1999/xlink" x="0px" y="0px"
	 viewBox="0 0 512 512" style="enable-background:new 0 0 512 512;" xml:space="preserve">
<g>
	<g>
		<path d="M456,246c-5.52,0-10,4.48-10,10s4.48,10,10,10c5.52,0,10-4.48,10-10C466,250.48,461.52,246,456,246z"/>
	</g>
</g>
<g>
	<g>
		<path d="M56,246c-5.52,0-10,4.48-10,10s4.48,10,10,10s10-4.48,10-10C66,250.48,61.52,246,56,246z"/>
	</g>
</g>
<g>
	<g>
		<path d="M491.375,157.661c-13.15-30.296-31.856-57.696-55.598-81.438s-51.142-42.448-81.439-55.598C322.809,6.939,289.723,0,256,0
			c-33.723,0-66.809,6.939-98.338,20.625C127.365,33.774,99.965,52.48,76.223,76.223c-23.742,23.743-42.448,51.143-55.598,81.438
			C6.939,189.191,0,222.277,0,256s6.939,66.809,20.625,98.339c13.15,30.296,31.856,57.696,55.598,81.438
			s51.142,42.448,81.439,55.598C189.191,505.061,222.277,512,256,512s66.809-6.939,98.338-20.625
			c30.297-13.149,57.697-31.855,81.439-55.598s42.448-51.143,55.598-81.438C505.061,322.809,512,289.723,512,256
			C512,222.277,505.061,189.191,491.375,157.661z M256,492C128.075,492,20,383.925,20,256S128.075,20,256,20s236,108.075,236,236
			S383.925,492,256,492z"/>
	</g>
</g>
<g>
	<g>
		<path d="M121.71,107.567c-3.907-3.906-10.238-3.904-14.142,0.003c-29.352,29.362-49.196,66.238-57.389,106.643
			c-1.097,5.413,2.401,10.69,7.813,11.788c0.671,0.136,1.339,0.201,1.998,0.201c4.658,0,8.828-3.272,9.79-8.015
			c7.409-36.541,25.367-69.903,51.932-96.479C125.617,117.804,125.616,111.472,121.71,107.567z"/>
	</g>
</g>
<g>
	<g>
		<path d="M454.007,285.999c-5.413-1.097-10.69,2.4-11.788,7.813c-7.41,36.546-25.371,69.906-51.94,96.477
			c-3.905,3.905-3.905,10.237,0,14.143c1.953,1.952,4.512,2.929,7.071,2.929s5.119-0.977,7.071-2.929
			c29.357-29.358,49.206-66.235,57.399-106.645C462.918,292.374,459.42,287.097,454.007,285.999z"/>
	</g>
</g>
<g>
	<g>
		<path d="M360.55,122.033c-0.023-0.018-0.047-0.036-0.071-0.054c-0.035-0.026-0.069-0.053-0.104-0.079
			C330.268,98.414,294.181,86,256,86c-22.015,0-43.466,4.173-63.762,12.404c-0.022,0.009-0.042,0.019-0.064,0.027
			c-0.046,0.019-0.091,0.039-0.137,0.058c-56.068,22.851-96.069,74.143-104.412,133.922C86.547,240.165,86,248.102,86,256
			c0,52.611,23.855,101.44,65.45,133.967c0.035,0.028,0.071,0.054,0.106,0.081c0.025,0.019,0.049,0.038,0.073,0.056
			C181.737,413.587,217.821,426,256,426c22.015,0,43.466-4.173,63.758-12.403c0.001,0,0.002-0.001,0.004-0.001
			c0.022-0.009,0.042-0.019,0.064-0.027c0.046-0.019,0.091-0.039,0.137-0.058c56.068-22.851,96.069-74.144,104.412-133.923
			C425.453,271.835,426,263.898,426,256C426,203.389,402.145,154.56,360.55,122.033z M206,114.571
			c16.031-5.687,32.817-8.571,50-8.571c28.661,0,55.983,7.933,79.858,23.063L206,204.04V114.571z M186,123.358v149.959
			l-77.476-44.733C116.886,183.591,145.659,144.727,186,123.358z M106,256c0-1.903,0.043-3.808,0.115-5.712l129.887,74.993
			l-77.4,44.688C125.094,341.347,106,300.187,106,256z M306,397.428c-16.031,5.687-32.817,8.571-50,8.571
			c-28.661,0.001-55.983-7.932-79.858-23.062L306,307.96V397.428z M306,284.866l-49.999,28.868L206,284.865v-57.731l49.999-28.868
			L306,227.135V284.866z M326,388.642V238.683l77.476,44.733C395.114,328.408,366.342,367.271,326,388.642z M405.885,261.712
			l-129.887-74.993l77.4-44.688C386.906,170.653,406,211.813,406,256C406,257.903,405.957,259.808,405.885,261.712z"/>
	</g>
</g>
<g>
</g>
<g>
</g>
<g>
</g>
<g>
</g>
<g>
</g>
<g>
</g>
<g>
</g>
<g>
</g>
<g>
</g>
<g>
</g>
<g>
</g>
<g>
</g>
<g>
</g>
<g>
</g>
<g>
</g>
</svg>
