<?xml version="1.0" encoding="iso-8859-1"?>
<!-- Generator: Adobe Illustrator 19.0.0, SVG Export Plug-In . SVG Version: 6.00 Build 0)  -->
<svg version="1.1" id="Capa_1" xmlns="http://www.w3.org/2000/svg" xmlns:xlink="http://www.w3.org/1999/xlink" x="0px" y="0px"
	 viewBox="0 0 512 512" style="enable-background:new 0 0 512 512;" xml:space="preserve">
<g>
	<g>
		<path d="M432.78,418.63c-3.91-3.9-10.24-3.9-14.15,0c-3.9,3.91-3.9,10.24,0,14.15c3.91,3.9,10.24,3.9,14.15,0
			C436.68,428.87,436.68,422.54,432.78,418.63z"/>
	</g>
</g>
<g>
	<g>
		<path d="M93.37,79.22c-3.91-3.9-10.24-3.9-14.15,0c-3.9,3.91-3.9,10.24,0,14.15c3.91,3.9,10.24,3.9,14.15,0
			C97.27,89.46,97.27,83.13,93.37,79.22z"/>
	</g>
</g>
<g>
	<g>
		<path d="M424.129,250.177c-0.759-1.06-18.94-26.261-48.455-51.746C335.949,164.13,294.566,146,256,146
			c-38.566,0-79.949,18.13-119.674,52.431c-29.515,25.485-47.696,50.686-48.455,51.746c-2.494,3.481-2.494,8.165,0,11.646
			c0.759,1.06,18.94,26.261,48.455,51.746C176.051,347.87,217.434,366,256,366s79.949-18.13,119.674-52.431
			c29.515-25.485,47.696-50.686,48.455-51.746C426.624,258.342,426.624,253.658,424.129,250.177z M256,346
			c-70.145,0-130.774-69.231-147.384-90.006C125.204,235.206,185.722,166,256,166c70.145,0,130.772,69.228,147.384,90.006
			C386.796,276.794,326.278,346,256,346z"/>
	</g>
</g>
<g>
	<g>
		<path d="M256,186c-38.598,0-70,31.402-70,70c0,38.598,31.402,70,70,70c38.598,0,70-31.402,70-70C326,217.402,294.598,186,256,186z
			 M256,306c-27.57,0-50-22.43-50-50s22.43-50,50-50s50,22.43,50,50S283.57,306,256,306z"/>
	</g>
</g>
<g>
	<g>
		<path d="M256,226c-16.542,0-30,13.458-30,30s13.458,30,30,30s30-13.458,30-30S272.542,226,256,226z M256,266
			c-5.514,0-10-4.486-10-10c0-5.514,4.486-10,10-10c5.514,0,10,4.486,10,10C266,261.514,261.514,266,256,266z"/>
	</g>
</g>
<g>
	<g>
		<path d="M256,66c-5.523,0-10,4.477-10,10v40c0,5.523,4.477,10,10,10s10-4.477,10-10V76C266,70.477,261.523,66,256,66z"/>
	</g>
</g>
<g>
	<g>
		<path d="M256,386c-5.523,0-10,4.477-10,10v40c0,5.523,4.477,10,10,10s10-4.477,10-10v-40C266,390.477,261.523,386,256,386z"/>
	</g>
</g>
<g>
	<g>
		<path d="M164.081,149.938l-28.29-28.29c-3.905-3.905-10.237-3.905-14.143,0c-3.905,3.905-3.905,10.237,0,14.143l28.29,28.29
			c1.953,1.953,4.513,2.929,7.072,2.929s5.119-0.976,7.071-2.929C167.986,160.176,167.986,153.844,164.081,149.938z"/>
	</g>
</g>
<g>
	<g>
		<path d="M390.351,376.209l-28.289-28.29c-3.905-3.905-10.237-3.905-14.143,0c-3.905,3.905-3.905,10.237,0,14.143l28.29,28.29
			c1.953,1.953,4.512,2.929,7.071,2.929s5.119-0.976,7.071-2.929C394.256,386.447,394.256,380.115,390.351,376.209z"/>
	</g>
</g>
<g>
	<g>
		<path d="M164.082,347.918c-3.905-3.905-10.237-3.905-14.143,0l-28.29,28.29c-3.905,3.905-3.905,10.237,0,14.143
			c1.953,1.953,4.512,2.929,7.071,2.929c2.559,0,5.119-0.976,7.072-2.929l28.29-28.29
			C167.987,358.156,167.987,351.824,164.082,347.918z"/>
	</g>
</g>
<g>
	<g>
		<path d="M390.352,121.648c-3.905-3.905-10.237-3.905-14.143,0l-28.29,28.29c-3.905,3.905-3.905,10.237,0,14.143
			c1.953,1.953,4.512,2.929,7.071,2.929s5.119-0.976,7.072-2.929l28.29-28.29C394.257,131.886,394.257,125.554,390.352,121.648z"/>
	</g>
</g>
<g>
	<g>
		<path d="M438.777,73.223C391.559,26.004,328.778,0,262,0c-48.627,0-95.773,13.974-136.34,40.412
			c-4.627,3.016-5.934,9.211-2.918,13.838s9.212,5.933,13.838,2.918C173.89,32.853,217.26,20,262,20c126.822,0,230,103.178,230,230
			c0,19.458-2.438,38.807-7.245,57.511c-1.375,5.349,1.847,10.799,7.195,12.174c0.835,0.215,1.673,0.317,2.497,0.317
			c4.455,0,8.518-2.999,9.678-7.513C509.351,292.161,512,271.136,512,250C512,183.222,485.996,120.441,438.777,73.223z"/>
	</g>
</g>
<g>
	<g>
		<path d="M478.412,346.912c-5.021-2.302-10.957-0.102-13.26,4.917c-4.688,10.213-10.179,20.169-16.32,29.592
			c-3.015,4.627-1.709,10.822,2.918,13.838c1.685,1.098,3.579,1.623,5.451,1.623c3.268,0,6.47-1.6,8.387-4.541
			c6.675-10.242,12.644-21.065,17.741-32.168C485.632,355.152,483.431,349.216,478.412,346.912z"/>
	</g>
</g>
<g>
	<g>
		<path d="M389.258,457.75c-3.016-4.627-9.212-5.933-13.838-2.918C338.11,479.147,294.74,492,250,492C123.178,492,20,388.822,20,262
			c0-19.458,2.438-38.807,7.245-57.511c1.375-5.349-1.847-10.799-7.195-12.174c-5.35-1.374-10.8,1.847-12.175,7.196
			C2.649,219.839,0,240.864,0,262c0,66.778,26.004,129.559,73.223,176.777S183.222,512,250,512
			c48.627,0,95.773-13.974,136.34-40.412C390.967,468.572,392.274,462.377,389.258,457.75z"/>
	</g>
</g>
<g>
	<g>
		<path d="M60.251,116.741c-4.627-3.015-10.823-1.709-13.838,2.918c-6.675,10.242-12.644,21.065-17.741,32.168
			c-2.304,5.021-0.103,10.957,4.916,13.261c1.352,0.62,2.77,0.914,4.166,0.914c3.788,0,7.411-2.163,9.095-5.831
			c4.688-10.213,10.179-20.169,16.32-29.592C66.184,125.952,64.878,119.757,60.251,116.741z"/>
	</g>
</g>
<g>
</g>
<g>
</g>
<g>
</g>
<g>
</g>
<g>
</g>
<g>
</g>
<g>
</g>
<g>
</g>
<g>
</g>
<g>
</g>
<g>
</g>
<g>
</g>
<g>
</g>
<g>
</g>
<g>
</g>
</svg>
