<?xml version="1.0" encoding="iso-8859-1"?>
<!-- Generator: Adobe Illustrator 19.0.0, SVG Export Plug-In . SVG Version: 6.00 Build 0)  -->
<svg version="1.1" id="Capa_1" xmlns="http://www.w3.org/2000/svg" xmlns:xlink="http://www.w3.org/1999/xlink" x="0px" y="0px"
	 viewBox="0 0 512 512" style="enable-background:new 0 0 512 512;" xml:space="preserve">
<g>
	<g>
		<path d="M380.38,425.95c-5.52,0-10,4.48-10,10c0,5.53,4.48,10,10,10c5.53,0,10-4.47,10-10
			C390.38,430.43,385.91,425.95,380.38,425.95z"/>
	</g>
</g>
<g>
	<g>
		<path d="M339.66,96c-2.76-4.78-8.88-6.42-13.66-3.66c-4.78,2.76-6.42,8.88-3.66,13.66s8.88,6.42,13.66,3.66
			C340.78,106.9,342.42,100.78,339.66,96z"/>
	</g>
</g>
<g>
	<g>
		<path d="M61.62,297.39c-4.79-2.77-10.9-1.13-13.66,3.66c-2.77,4.78-1.13,10.89,3.66,13.66c4.78,2.76,10.89,1.12,13.66-3.66
			C68.04,306.26,66.4,300.15,61.62,297.39z"/>
	</g>
</g>
<g>
	<g>
		<path d="M483.156,239.34c-17.048-24.35-40.185-43.252-67.21-55.03c0.023-1.106,0.054-2.215,0.054-3.31
			c0-88.224-71.776-160-160-160S96,92.776,96,181c0,1.094,0.031,2.204,0.054,3.31c-27.025,11.778-50.162,30.68-67.21,55.03
			C9.974,266.293,0,297.989,0,331c0,88.224,71.776,160,160,160c34.654,0,68.43-11.32,96-32.011C283.572,479.681,317.347,491,352,491
			c88.224,0,160-71.776,160-160C512,297.989,502.026,266.293,483.156,239.34z M256,41c75.897,0,137.878,60.708,139.944,136.115
			C381.719,173.056,366.994,171,352,171c-34.654,0-68.43,11.32-96,32.011C228.428,182.319,194.653,171,160,171
			c-14.994,0-29.719,2.056-43.944,6.115C118.121,101.708,180.103,41,256,41z M256,229.13c23.773,22.45,39.098,52.767,43.001,85.138
			C285.162,318.733,270.733,321,256,321c-14.733,0-29.163-2.267-43.001-6.732C216.901,281.898,232.227,251.581,256,229.13z
			 M193.897,306.484c-42.123-20.892-71.273-61.921-76.884-108.757C130.848,193.266,145.272,191,160,191
			c28.826,0,56.956,8.948,80.386,25.384C215.605,240.571,199.213,272.376,193.897,306.484z M271.615,216.384
			C295.044,199.948,323.174,191,352,191c14.728,0,29.152,2.266,42.987,6.727c-5.612,46.837-34.761,87.866-76.883,108.757
			C312.789,272.379,296.397,240.571,271.615,216.384z M160,471c-77.196,0-140-62.804-140-140c0-53.198,30.831-102.07,77.902-125.476
			c8.342,53.813,43.92,100.231,94.152,122.162C192.031,328.793,192,329.904,192,331c0,43.457,17.498,84.572,48.382,114.618
			C216.954,462.052,188.825,471,160,471z M256,432.883c-27.123-25.54-42.921-60.647-43.946-97.999
			C226.279,338.943,241.005,341,256,341s29.721-2.057,43.947-6.116C298.921,372.235,283.124,407.341,256,432.883z M352,471
			c-28.824,0-56.952-8.947-80.382-25.382C302.503,415.57,320,374.456,320,331c0-1.096-0.031-2.207-0.054-3.314
			c50.229-21.929,85.807-68.345,94.151-122.163C461.169,228.931,492,277.802,492,331C492,408.196,429.196,471,352,471z"/>
	</g>
</g>
<g>
	<g>
		<path d="M301.163,69.82C286.786,64,271.591,61.05,256,61.05s-30.786,2.95-45.163,8.77c-5.119,2.073-7.589,7.903-5.517,13.022
			c2.074,5.12,7.902,7.59,13.022,5.517c11.981-4.851,24.651-7.31,37.658-7.31s25.677,2.459,37.658,7.31
			c1.229,0.498,2.5,0.733,3.749,0.733c3.953,0,7.698-2.36,9.273-6.25C308.752,77.723,306.282,71.893,301.163,69.82z"/>
	</g>
</g>
<g>
	<g>
		<path d="M102,409.935c-10.19-7.948-18.655-17.692-25.16-28.965c-6.5-11.255-10.704-23.456-12.497-36.265
			c-0.765-5.47-5.823-9.285-11.289-8.518c-5.47,0.765-9.283,5.819-8.518,11.289c2.15,15.369,7.191,30.002,14.982,43.493
			c7.796,13.511,17.951,25.198,30.181,34.737c1.827,1.425,3.993,2.115,6.143,2.115c2.976,0,5.92-1.322,7.892-3.851
			C107.132,419.615,106.355,413.331,102,409.935z"/>
	</g>
</g>
<g>
	<g>
		<path d="M458.946,336.187c-5.475-0.766-10.524,3.048-11.289,8.518c-1.792,12.809-5.997,25.01-12.498,36.268
			c-6.504,11.27-14.968,21.014-25.159,28.962c-4.355,3.396-5.132,9.681-1.735,14.035c1.972,2.528,4.917,3.851,7.892,3.851
			c2.15,0,4.317-0.69,6.143-2.115c12.23-9.539,22.385-21.226,30.18-34.734c7.792-13.493,12.833-28.127,14.984-43.496
			C468.229,342.006,464.416,336.952,458.946,336.187z"/>
	</g>
</g>
<g>
</g>
<g>
</g>
<g>
</g>
<g>
</g>
<g>
</g>
<g>
</g>
<g>
</g>
<g>
</g>
<g>
</g>
<g>
</g>
<g>
</g>
<g>
</g>
<g>
</g>
<g>
</g>
<g>
</g>
</svg>
